<?xml version="1.0" encoding="UTF-8" standalone="no"?>
<!-- Created with Inkscape (http://www.inkscape.org/) -->

<svg
   xmlns:dc="http://purl.org/dc/elements/1.1/"
   xmlns:cc="http://creativecommons.org/ns#"
   xmlns:rdf="http://www.w3.org/1999/02/22-rdf-syntax-ns#"
   xmlns:svg="http://www.w3.org/2000/svg"
   xmlns="http://www.w3.org/2000/svg"
   xmlns:sodipodi="http://sodipodi.sourceforge.net/DTD/sodipodi-0.dtd"
   xmlns:inkscape="http://www.inkscape.org/namespaces/inkscape"
   width="80mm"
   height="50mm"
   viewBox="0 0 353 250"
   version="1.1"
   id="svg362"
   inkscape:version="0.92.4 (5da689c313, 2019-01-14)"
   sodipodi:docname="绘图.svg">
  <defs
     id="defs356" />
  <sodipodi:namedview
     id="base"
     pagecolor="#ffffff"
     bordercolor="#666666"
     borderopacity="1.0"
     inkscape:pageopacity="0.0"
     inkscape:pageshadow="2"
     inkscape:zoom="0.24748737"
     inkscape:cx="46.889908"
     inkscape:cy="532.37415"
     inkscape:document-units="mm"
     inkscape:current-layer="layer1"
     showgrid="false"
     units="mm"
     inkscape:window-width="1920"
     inkscape:window-height="1017"
     inkscape:window-x="-8"
     inkscape:window-y="-8"
     inkscape:window-maximized="1" />
  <metadata
     id="metadata359">
    <rdf:RDF>
      <cc:Work
         rdf:about="">
        <dc:format>image/svg+xml</dc:format>
        <dc:type
           rdf:resource="http://purl.org/dc/dcmitype/StillImage" />
        <dc:title></dc:title>
      </cc:Work>
    </rdf:RDF>
  </metadata>
  <g
     inkscape:label="Layer 1"
     inkscape:groupmode="layer"
     id="layer1"
     transform="translate(0,-47)">
    <g
       id="layer1-9"
       transform="matrix(1.7510475,0,0,1.7510475,-3.7183349,-43.258237)">
      <g
         transform="matrix(1.0432282,0,0,1,-409.65253,-37.797615)"
         id="layer1-5">
        <image
           y="12.610722"
           x="-44.223213"
           height="270.93332"
           width="216.95833"
           id="image0" />
        <g
           id="g4114"
           transform="matrix(0.01098617,0,0,-0.00869729,495.30602,208.81239)"
           style="fill:#008000;stroke:none">
          <path
             id="path3964"
             d="m 6082,10228 c -27,-13 -38,-51 -25,-81 10,-21 8,-22 -28,-19 -30,3 -43,-1 -63,-22 -65,-65 13,-136 118,-108 38,11 46,3 20,-19 -58,-48 -73,-181 -28,-265 69,-131 201,-207 315,-183 106,23 189,149 190,287 1,139 -114,224 -262,193 -76,-16 -160,-62 -187,-102 -47,-69 -11,-157 83,-200 87,-40 145,-14 145,64 0,57 -17,81 -53,72 -36,-10 -35,-23 2,-17 27,4 30,1 37,-33 8,-46 -8,-83 -41,-91 -59,-15 -165,57 -181,123 -12,45 22,92 95,132 53,29 77,35 140,39 66,3 82,0 120,-20 98,-53 118,-171 51,-304 -47,-92 -91,-126 -170,-132 -79,-6 -149,28 -218,103 -78,86 -102,185 -63,270 18,40 82,105 103,105 6,0 19,6 27,14 25,22 119,46 182,46 77,0 171,-31 249,-82 80,-53 220,-192 220,-219 0,-11 20,-41 45,-68 83,-88 159,-272 174,-418 20,-197 -31,-393 -149,-572 -55,-83 -188,-236 -197,-227 -2,2 12,29 32,58 38,58 52,110 41,152 -7,28 -36,36 -36,11 0,-8 -4,-15 -10,-15 -5,0 -10,9 -10,20 0,27 -16,25 -36,-5 -13,-20 -15,-36 -9,-78 5,-29 9,-77 9,-106 1,-54 1,-55 -49,-93 -74,-57 -160,-108 -244,-145 -42,-18 -77,-36 -79,-41 -1,-5 -26,-5 -55,-1 -283,44 -573,51 -763,19 -213,-37 -424,-120 -604,-238 -105,-69 -287,-249 -355,-352 -107,-161 -184,-346 -225,-545 -21,-98 -43,-341 -36,-393 3,-18 1,-30 -5,-27 -5,4 -9,15 -9,26 0,25 -28,80 -49,95 -25,19 -41,5 -41,-35 v -36 l -24,30 c -30,36 -45,27 -53,-32 -8,-62 24,-120 120,-220 71,-73 86,-94 88,-125 3,-33 -3,-43 -57,-100 -189,-198 -308,-396 -532,-878 -117,-254 -171,-361 -171,-340 0,8 6,42 14,75 50,201 71,618 41,785 -36,198 -103,277 -228,268 -80,-6 -133,-43 -173,-123 -60,-119 -40,-256 44,-312 51,-34 104,-30 191,13 l 73,37 -7,73 c -7,85 -23,129 -59,163 l -25,23 -62,-33 c -71,-38 -97,-68 -81,-96 9,-16 10,-14 11,10 0,22 10,34 47,57 67,43 81,45 109,19 26,-25 39,-63 49,-150 l 6,-56 -61,-32 c -148,-79 -254,-19 -254,144 0,118 58,211 153,243 210,73 311,-220 256,-743 -29,-278 -66,-425 -133,-538 -158,-266 -411,-516 -680,-671 -105,-61 -285,-135 -421,-172 -121,-33 -155,-37 -111,-14 31,16 50,66 39,103 -17,60 -68,88 -123,68 -24,-10 -26,-9 -16,8 28,54 -7,121 -64,121 -76,0 -106,-47 -132,-208 -25,-157 -12,-142 -120,-142 -168,0 -421,42 -604,101 -92,30 -280,109 -280,119 0,4 71,-10 157,-31 86,-22 177,-39 202,-39 85,0 139,57 112,116 -13,28 -47,44 -98,44 h -35 l 31,29 c 19,18 31,39 31,55 0,14 4,26 9,26 28,0 197,129 271,207 208,216 262,424 178,683 -43,134 -115,248 -222,356 -138,137 -291,174 -466,113 -45,-16 -71,-19 -140,-14 -75,5 -89,4 -117,-14 -38,-24 -44,-51 -11,-51 21,0 21,0 2,-14 -18,-14 -18,-15 -1,-22 10,-3 33,-4 51,-1 l 34,5 -39,-56 c -50,-74 -71,-154 -67,-258 l 3,-81 -78,-71 c -67,-61 -139,-103 -153,-90 -2,3 18,19 45,36 91,59 155,153 149,220 -3,34 -6,37 -33,37 -23,0 -33,-7 -45,-30 l -15,-30 -5,46 c -7,57 -25,81 -59,77 -41,-5 -47,-41 -26,-157 15,-82 16,-108 7,-140 l -12,-38 -83,-5 c -91,-5 -163,-31 -209,-75 -30,-29 -35,-52 -16,-71 15,-15 54,-16 63,-2 3,5 11,10 17,10 7,0 6,-5 -2,-15 -24,-29 -29,-84 -11,-106 35,-44 83,5 131,133 12,31 34,70 49,87 l 28,30 49,-24 c 27,-13 77,-29 112,-36 55,-11 72,-11 125,3 61,16 62,16 90,-8 134,-113 367,28 367,221 0,48 -25,108 -57,137 -75,68 -221,61 -276,-14 -38,-51 -17,-161 35,-189 51,-28 152,17 178,80 13,33 8,61 -11,61 -8,0 -8,-4 1,-15 31,-38 -84,-136 -143,-121 -37,9 -67,60 -67,113 0,106 148,159 251,90 39,-26 79,-98 79,-142 -2,-78 -61,-173 -135,-216 -54,-31 -136,-39 -178,-18 -35,18 -67,51 -67,69 0,9 -11,26 -25,39 l -26,22 21,26 c 11,14 20,34 20,44 0,25 -29,51 -50,44 -15,-5 -19,3 -24,47 -18,152 40,281 165,373 86,63 174,89 288,83 116,-5 181,-36 277,-132 65,-65 174,-214 174,-239 0,-18 -33,18 -72,79 -51,82 -109,134 -148,134 -34,0 -38,-14 -14,-49 l 16,-23 -30,16 c -60,31 -55,-31 7,-87 38,-34 79,-50 217,-86 41,-11 42,-12 69,-94 22,-63 29,-107 33,-192 4,-100 2,-117 -23,-190 -52,-155 -200,-334 -369,-444 -77,-50 -106,-61 -106,-41 0,20 -65,50 -109,50 -60,0 -103,-29 -146,-101 l -36,-59 h -52 c -71,0 -169,17 -236,40 -64,23 -64,23 -56,10 12,-19 152,-53 242,-58 85,-4 92,-6 83,-23 -12,-21 -56,-54 -85,-63 -37,-11 -331,175 -444,281 -28,27 -67,75 -86,107 -34,58 -49,63 -21,8 72,-143 109,-375 87,-544 C 465,3914 408,3757 238,3415 82,3100 43,2969 19,2673 c -21,-252 17,-539 85,-652 42,-69 138,-179 209,-240 165,-141 281,-175 400,-117 68,33 97,72 97,132 0,54 -22,105 -67,155 -43,48 -100,79 -143,79 -36,0 -90,-46 -90,-77 0,-13 6,-8 20,15 43,69 115,61 197,-23 74,-77 92,-160 47,-224 -24,-34 -110,-71 -166,-71 -98,0 -215,66 -344,196 -90,91 -157,182 -180,247 -33,93 -54,264 -54,440 1,323 53,552 181,792 145,273 254,550 285,725 21,122 15,312 -14,420 -11,41 -18,77 -16,79 3,3 39,-29 82,-70 90,-89 168,-150 312,-246 128,-86 443,-278 565,-345 312,-171 664,-271 1032,-294 96,-6 111,-9 106,-23 -4,-15 -3,-15 9,0 10,12 43,17 146,22 504,26 981,197 1371,493 367,279 583,622 671,1068 l 12,60 25,-52 c 29,-62 57,-82 81,-58 14,13 14,20 4,36 -18,29 -15,33 10,16 28,-20 62,-20 77,-2 20,24 1,44 -75,82 -82,41 -120,72 -107,85 5,5 30,2 57,-6 70,-21 148,-19 177,4 20,16 21,21 10,35 -7,9 -24,16 -38,16 -24,0 -24,0 6,26 32,27 37,40 22,63 -15,23 -58,4 -120,-53 -53,-49 -96,-74 -107,-64 -2,3 16,18 41,36 52,37 94,95 101,144 8,44 -16,58 -46,28 -26,-26 -30,-25 -30,8 0,32 -16,52 -42,52 -16,0 -18,10 -18,79 0,75 2,81 29,103 15,13 55,34 87,46 78,28 115,67 121,126 9,78 -41,123 -89,79 -18,-16 -19,-15 -12,24 11,69 -23,101 -77,72 -26,-13 -40,-50 -48,-124 -10,-86 -17,-45 -30,180 -15,256 -14,400 2,412 22,18 147,36 217,31 128,-9 210,-86 218,-203 3,-50 0,-66 -20,-95 -49,-72 -121,-98 -219,-80 -57,10 -109,53 -109,88 1,33 37,98 74,130 45,40 84,40 103,2 12,-24 13,-24 13,-3 0,34 -40,56 -76,43 -61,-23 -124,-109 -124,-169 0,-43 41,-86 94,-100 156,-39 279,38 278,174 -1,93 -44,160 -129,202 -46,22 -69,27 -133,26 -42,0 -101,-6 -129,-13 -29,-7 -55,-9 -58,-6 -19,19 75,382 111,431 11,15 23,15 109,6 142,-16 191,-14 210,7 25,27 22,69 -4,77 -21,7 -21,8 5,29 25,19 26,23 12,41 -11,16 -25,20 -68,19 -63,-1 -134,-34 -190,-88 -20,-20 -40,-36 -43,-36 -12,0 64,130 119,204 178,240 418,416 725,532 85,32 188,54 255,54 56,0 117,-31 166,-85 30,-32 71,-55 100,-55 22,0 27,19 9,37 -9,9 -7,10 10,6 26,-7 28,13 4,39 -15,17 -15,18 3,18 10,-1 64,-15 119,-33 l 100,-33 26,-62 c 27,-65 63,-112 86,-112 10,0 12,7 8,21 -6,18 -5,20 14,10 19,-10 21,-9 21,13 0,14 -14,41 -31,61 l -32,36 49,-20 c 27,-10 106,-42 175,-69 175,-70 379,-138 471,-156 145,-30 280,-20 389,28 14,6 17,0 17,-39 2,-58 20,-119 44,-145 24,-26 72,-26 98,0 23,23 24,29 10,64 -9,25 -8,26 15,20 44,-11 75,4 91,42 13,32 13,38 0,59 -22,33 -73,40 -162,23 -41,-8 -74,-14 -74,-12 0,1 29,32 65,68 51,50 76,86 110,158 24,51 50,114 56,141 13,46 14,47 54,47 58,0 114,18 141,45 28,29 30,55 7,84 -19,24 -45,29 -81,17 -22,-7 -23,-6 -13,13 15,28 4,67 -26,91 -33,25 -58,25 -83,0 -24,-24 -27,-102 -9,-193 11,-51 9,-64 -11,-124 -54,-163 -143,-286 -247,-340 -83,-44 -150,-57 -257,-50 -81,5 -279,46 -314,66 -7,4 26,12 75,19 161,21 290,66 360,126 115,97 86,305 -58,409 -73,53 -186,51 -246,-4 -88,-82 -83,-268 10,-315 69,-36 155,-13 186,51 12,25 12,35 0,69 -8,22 -20,42 -28,44 -11,4 -10,-1 2,-19 10,-13 17,-40 17,-60 0,-74 -94,-114 -171,-73 -36,18 -68,82 -69,134 0,117 75,200 182,200 132,0 266,-190 229,-325 -33,-122 -214,-209 -476,-230 l -80,-6 -220,86 c -433,171 -581,213 -775,222 -70,3 -144,1 -169,-5 l -43,-10 37,34 c 41,38 42,60 0,57 -27,-2 -27,-2 -9,18 27,30 7,43 -44,30 -46,-13 -82,-50 -143,-146 -35,-56 -48,-67 -107,-95 -36,-17 -89,-45 -116,-61 -39,-24 -47,-27 -41,-12 17,41 17,53 0,59 -9,4 -21,2 -28,-5 -19,-19 -27,-12 -15,14 17,38 0,47 -48,26 -52,-23 -75,-62 -119,-192 -30,-88 -42,-109 -88,-158 -195,-206 -342,-510 -373,-774 -8,-70 -16,-79 -79,-102 -75,-26 -207,-100 -279,-155 -76,-58 -69,-68 -87,124 -16,174 -6,430 21,561 63,296 187,533 384,731 260,260 607,406 1001,421 177,6 307,-4 648,-54 236,-34 270,-37 532,-39 245,-2 283,-1 305,14 14,9 56,26 93,39 324,110 675,426 796,718 47,113 62,180 68,305 10,235 -71,472 -180,524 -104,49 -227,-25 -227,-136 0,-40 5,-50 32,-73 29,-24 38,-27 86,-22 74,8 102,28 102,73 0,38 -15,74 -31,74 -5,0 -3,-13 6,-30 33,-64 3,-101 -84,-103 -122,-4 -136,123 -22,200 92,62 206,-17 261,-181 26,-79 50,-221 50,-297 0,-132 -51,-304 -131,-440 -153,-263 -464,-514 -747,-603 -94,-30 -101,-31 -84,-14 20,20 13,28 -26,28 -26,0 -54,-11 -92,-35 l -54,-35 h -126 c -163,0 -571,42 -556,57 3,3 39,20 80,38 310,135 556,410 638,713 15,58 21,110 21,207 2,152 -18,237 -84,371 l -40,81 41,40 c 28,29 40,49 40,70 0,51 -45,72 -73,33 -14,-19 -14,-19 -26,6 -11,24 -16,26 -56,21 -43,-4 -47,-3 -77,36 -45,57 -167,151 -241,186 -110,52 -192,59 -311,25 -27,-8 -51,-14 -53,-14 -2,0 -3,15 -3,33 -1,42 -32,110 -61,131 -27,18 -35,19 -67,4 z M 5740,7860 c -8,-5 -19,-10 -25,-10 -5,0 -3,5 5,10 8,5 20,10 25,10 6,0 3,-5 -5,-10 z M 4314,6580 c 4,-65 3,-90 -4,-80 -9,13 -15,189 -6,179 2,-2 6,-47 10,-99 z m 450,-207 c 3,-126 11,-289 16,-363 10,-158 13,-487 4,-553 l -7,-46 -27,38 c -34,46 -78,79 -118,87 -40,8 -51,-20 -20,-54 l 23,-24 -23,6 c -13,5 -34,1 -51,-7 l -29,-14 -12,76 c -6,42 -36,189 -66,328 -67,315 -104,515 -97,526 3,5 40,35 83,67 90,66 246,146 311,159 3,0 9,-101 13,-226 z m -420,-45 c 22,-111 102,-507 130,-643 43,-208 67,-384 55,-407 -13,-24 -11,-131 3,-185 22,-88 -26,-330 -98,-499 -45,-105 -128,-246 -202,-344 -57,-75 -84,-102 -152,-152 l -37,-28 5,48 c 4,41 0,52 -23,80 -15,18 -33,32 -41,32 -11,0 -12,7 -7,28 5,15 8,64 8,109 0,74 -3,85 -30,125 -47,67 -126,102 -241,106 -206,8 -385,-81 -609,-303 -140,-139 -254,-282 -408,-512 l -122,-183 -95,6 c -361,22 -665,102 -973,255 -193,96 -761,452 -812,509 -11,13 16,-1 60,-30 111,-72 318,-172 455,-218 234,-80 426,-112 678,-113 488,-2 932,172 1273,498 243,234 349,400 609,958 208,446 309,614 486,813 36,39 70,72 75,72 5,0 11,-10 13,-22 z m 457,-951 c -13,-13 -15,41 -3,70 5,13 8,8 10,-21 2,-21 -1,-43 -7,-49 z m -155,16 c 62,6 134,-6 134,-23 0,-4 -24,-11 -52,-15 -29,-4 -69,-14 -88,-22 -41,-18 -81,-18 -92,0 -4,6 -8,27 -8,45 0,30 1,32 22,21 13,-7 45,-9 84,-6 z m 105,-205 c -52,-288 -149,-518 -306,-725 -73,-97 -195,-235 -195,-221 0,4 25,44 55,89 107,157 198,372 226,534 10,58 22,85 68,155 31,47 62,99 68,115 6,17 21,58 33,93 13,34 32,75 44,90 20,26 21,26 24,5 2,-12 -6,-73 -17,-135 z m -3861,-8 c 0,-5 -5,-10 -11,-10 -5,0 -7,5 -4,10 3,6 8,10 11,10 2,0 4,-4 4,-10 z m 2958,-620 c 87,-38 132,-107 132,-205 0,-72 -17,-113 -50,-120 -16,-3 -34,-13 -41,-21 -19,-23 -25,-16 -21,27 5,50 -26,89 -69,89 -21,0 -32,7 -43,28 -23,44 -52,65 -94,65 -143,0 -264,-203 -185,-312 25,-35 114,-79 174,-87 l 49,-7 2,-46 c 1,-25 1,-56 0,-69 -1,-22 0,-22 26,6 33,35 69,54 144,76 78,22 81,20 18,-19 -204,-129 -497,-246 -760,-305 -165,-36 -530,-73 -530,-53 0,5 44,75 98,155 317,476 616,755 872,813 90,20 211,14 278,-15 z m -135,-170 c 37,-29 44,-58 18,-76 -19,-14 -56,-71 -54,-84 0,-3 4,-49 7,-102 l 7,-97 -38,6 c -96,14 -174,69 -188,132 -21,95 94,240 191,241 17,0 43,-9 57,-20 z M 2135,4040 c 4,-6 -7,-10 -27,-10 -18,0 -51,-3 -73,-6 -28,-5 -37,-3 -30,4 6,6 33,13 60,15 28,2 53,4 57,5 4,1 10,-2 13,-8 z"
             inkscape:connector-curvature="0"
             style="fill:#008000" />
          <path
             id="path3966"
             d="m 7147,9272 c -15,-16 -36,-88 -37,-124 0,-17 24,0 87,59 26,25 32,69 8,59 -9,-3 -15,0 -15,9 0,20 -23,19 -43,-3 z"
             inkscape:connector-curvature="0"
             style="fill:#008000" />
          <path
             id="path3968"
             d="m 7995,8738 c -29,-42 -64,-98 -62,-98 27,0 110,36 122,53 20,29 20,51 -1,43 -12,-4 -15,-2 -10,9 9,24 -31,18 -49,-7 z"
             inkscape:connector-curvature="0"
             style="fill:#008000" />
          <path
             id="path3970"
             d="m 5687,8450 c -37,-11 -53,-25 -97,-85 -49,-68 -58,-84 -39,-68 9,7 49,19 90,28 77,16 122,40 127,69 3,11 -4,16 -23,16 -24,0 -25,1 -11,16 30,29 7,40 -47,24 z"
             inkscape:connector-curvature="0"
             style="fill:#008000" />
          <path
             id="path3972"
             d="m 4863,8209 c -37,-24 -61,-77 -69,-156 -3,-32 -7,-67 -9,-78 -6,-32 172,144 181,178 10,40 -8,54 -41,33 -26,-17 -26,-17 -15,3 10,21 6,41 -8,41 -4,0 -21,-9 -39,-21 z"
             inkscape:connector-curvature="0"
             style="fill:#008000" />
          <path
             id="path3974"
             d="m 6087,8209 c -33,-25 -40,-74 -26,-169 12,-75 14,-79 40,-85 39,-9 133,12 163,36 32,25 34,71 6,99 -22,22 -42,25 -69,10 -17,-8 -18,-5 -13,35 5,51 -5,68 -48,84 -24,8 -34,6 -53,-10 z"
             inkscape:connector-curvature="0"
             style="fill:#008000" />
          <path
             id="path3976"
             d="m 3836,8122 c -3,-5 7,-7 23,-4 17,2 32,-2 40,-12 9,-11 10,-16 2,-17 -35,-4 -46,-2 -43,10 1,7 -2,10 -8,6 -6,-3 -8,-11 -5,-16 4,-5 1,-9 -5,-9 -6,0 -8,-4 -5,-10 4,-6 -1,-7 -11,-3 -13,5 -15,2 -9,-18 4,-13 11,-28 16,-33 5,-6 9,-16 9,-24 0,-9 -8,-4 -21,12 -11,14 -30,31 -42,38 -21,11 -21,10 -7,-7 8,-10 10,-16 4,-12 -7,4 -17,0 -24,-8 -10,-12 -10,-19 1,-32 11,-15 11,-16 -1,-5 -17,14 -34,16 -25,2 3,-5 0,-10 -7,-10 -8,0 -14,-9 -14,-19 0,-14 4,-17 12,-10 9,8 11,5 7,-9 -2,-11 1,-23 8,-27 8,-6 10,-4 4,6 -6,11 -5,12 6,2 15,-15 43,-17 34,-3 -3,5 0,7 8,4 8,-3 18,-1 22,5 3,6 11,11 17,11 6,0 6,-6 -2,-15 -11,-13 -10,-15 6,-10 13,4 12,2 -3,-6 -13,-7 -23,-19 -23,-27 0,-9 3,-13 6,-9 3,3 14,-3 25,-14 11,-11 25,-17 31,-13 6,4 8,3 4,-4 -3,-6 8,-21 26,-33 18,-12 28,-17 21,-10 -8,10 -5,21 13,48 13,20 24,40 24,45 0,6 7,25 16,44 15,30 15,37 0,81 -21,63 -70,123 -101,123 -13,0 -26,-4 -29,-8 z"
             inkscape:connector-curvature="0"
             style="fill:#008000" />
          <path
             id="path3978"
             d="m 4090,8119 c 12,-9 11,-10 -8,-6 -15,4 -25,-1 -32,-13 -16,-29 -13,-45 5,-30 13,11 24,9 61,-9 49,-25 59,-23 50,7 -8,23 -43,36 -50,18 -2,-6 -3,-1 -3,10 1,15 6,20 17,17 13,-4 13,-4 0,6 -8,6 -24,11 -35,11 -17,0 -18,-2 -5,-11 z"
             inkscape:connector-curvature="0"
             style="fill:#008000" />
          <path
             id="path3980"
             d="m 4059,8058 c -5,-72 14,-207 36,-250 8,-17 15,-37 15,-44 0,-7 6,-14 13,-17 18,-6 58,23 50,37 -3,6 -2,8 2,3 11,-10 56,33 48,46 -3,6 -1,7 5,3 12,-7 69,81 58,91 -3,4 -6,1 -6,-5 0,-7 -16,-4 -42,8 -45,21 -70,25 -65,13 1,-5 -2,-8 -8,-8 -5,0 -9,10 -7,23 2,12 -3,22 -10,22 -16,0 -68,50 -68,66 0,17 -20,29 -21,12 z m 144,-241 c 4,3 7,4 7,0 0,-17 -20,-14 -36,6 -19,22 -19,22 2,4 11,-9 24,-14 27,-10 z"
             inkscape:connector-curvature="0"
             style="fill:#008000" />
          <path
             id="path3982"
             d="m 3650,8045 c -7,-9 -11,-17 -9,-20 3,-2 10,5 17,15 14,24 10,26 -8,5 z"
             inkscape:connector-curvature="0"
             style="fill:#008000" />
          <path
             id="path3984"
             d="m 4033,7965 c 0,-38 2,-53 4,-32 2,20 2,52 0,70 -2,17 -4,1 -4,-38 z"
             inkscape:connector-curvature="0"
             style="fill:#008000" />
          <path
             id="path3986"
             d="m 4200,7995 c -19,-22 -8,-25 13,-3 9,10 13,18 8,18 -5,0 -14,-7 -21,-15 z"
             inkscape:connector-curvature="0"
             style="fill:#008000" />
          <path
             id="path3988"
             d="m 3665,7960 c 10,-11 20,-20 23,-20 3,0 -3,9 -13,20 -10,11 -20,20 -23,20 -3,0 3,-9 13,-20 z"
             inkscape:connector-curvature="0"
             style="fill:#008000" />
          <path
             id="path3990"
             d="m 3982,7895 c 0,-16 2,-22 5,-12 2,9 2,23 0,30 -3,6 -5,-1 -5,-18 z"
             inkscape:connector-curvature="0"
             style="fill:#008000" />
          <path
             id="path3992"
             d="m 3983,7805 c 0,-22 2,-30 4,-17 2,12 2,30 0,40 -3,9 -5,-1 -4,-23 z"
             inkscape:connector-curvature="0"
             style="fill:#008000" />
          <path
             id="path3994"
             d="m 4031,7798 c 0,-14 -4,-35 -7,-45 -5,-17 -5,-17 6,0 6,10 9,30 7,45 l -4,27 z"
             inkscape:connector-curvature="0"
             style="fill:#008000" />
          <path
             id="path3996"
             d="m 3678,7743 c 7,-3 16,-2 19,1 4,3 -2,6 -13,5 -11,0 -14,-3 -6,-6 z"
             inkscape:connector-curvature="0"
             style="fill:#008000" />
          <path
             id="path3998"
             d="m 3788,7743 c 7,-3 16,-2 19,1 4,3 -2,6 -13,5 -11,0 -14,-3 -6,-6 z"
             inkscape:connector-curvature="0"
             style="fill:#008000" />
          <path
             id="path4000"
             d="m 3598,7733 c 7,-3 16,-2 19,1 4,3 -2,6 -13,5 -11,0 -14,-3 -6,-6 z"
             inkscape:connector-curvature="0"
             style="fill:#008000" />
          <path
             id="path4002"
             d="m 3971,7724 c 0,-11 3,-14 6,-6 3,7 2,16 -1,19 -3,4 -6,-2 -5,-13 z"
             inkscape:connector-curvature="0"
             style="fill:#008000" />
          <path
             id="path4004"
             d="m 4410,7728 c 0,-2 9,-11 20,-21 11,-9 20,-13 20,-7 0,5 -9,14 -20,20 -11,6 -20,9 -20,8 z"
             inkscape:connector-curvature="0"
             style="fill:#008000" />
          <path
             id="path4006"
             d="m 3900,7705 c -14,-8 -20,-14 -14,-15 5,0 19,7 30,15 24,18 16,19 -16,0 z"
             inkscape:connector-curvature="0"
             style="fill:#008000" />
          <path
             id="path4008"
             d="m 3499,7683 c -13,-16 -12,-17 4,-4 9,7 17,15 17,17 0,8 -8,3 -21,-13 z"
             inkscape:connector-curvature="0"
             style="fill:#008000" />
          <path
             id="path4010"
             d="m 3993,7687 c -3,-4 -2,-11 1,-14 3,-4 6,-1 6,5 0,6 6,9 14,6 8,-3 16,-2 19,3 3,5 -3,9 -14,9 -11,0 -23,-4 -26,-9 z"
             inkscape:connector-curvature="0"
             style="fill:#008000" />
          <path
             id="path4012"
             d="m 4441,7658 c -1,-12 -7,-16 -18,-12 -15,5 -16,4 -3,-5 17,-12 35,1 27,21 -4,9 -6,8 -6,-4 z"
             inkscape:connector-curvature="0"
             style="fill:#008000" />
          <path
             id="path4014"
             d="m 3490,7654 c 0,-6 7,-19 16,-30 14,-18 14,-18 3,6 -14,31 -19,36 -19,24 z"
             inkscape:connector-curvature="0"
             style="fill:#008000" />
          <path
             id="path4016"
             d="m 3810,7645 c -7,-8 -17,-12 -24,-8 -6,3 -8,3 -4,-2 4,-4 2,-15 -4,-24 -7,-9 2,-3 20,13 18,17 32,31 32,33 0,7 -8,2 -20,-12 z"
             inkscape:connector-curvature="0"
             style="fill:#008000" />
          <path
             id="path4018"
             d="m 5749,7650 c -178,-21 -372,-101 -530,-219 -63,-48 -229,-210 -229,-225 0,-5 46,35 103,90 147,145 258,219 422,281 131,50 231,66 375,60 147,-6 212,-22 337,-83 166,-80 270,-204 301,-359 23,-119 25,-145 12,-208 -23,-118 -93,-218 -192,-273 -48,-26 -62,-29 -148,-29 -83,0 -102,3 -151,28 -83,40 -143,98 -180,172 -29,59 -31,72 -27,133 6,79 24,118 86,185 70,74 129,101 227,101 63,1 91,-4 133,-23 97,-44 172,-155 172,-256 0,-86 -69,-187 -153,-226 -51,-23 -137,-25 -182,-3 -39,18 -78,57 -81,82 -2,9 -11,48 -21,85 l -17,68 24,46 c 53,99 174,134 257,74 39,-28 73,-82 73,-116 0,-27 -64,-85 -93,-85 -14,0 -29,-5 -33,-11 -4,-8 4,-9 27,-4 101,21 137,104 79,184 -78,111 -246,96 -317,-27 -14,-26 -28,-49 -29,-51 -2,-2 -10,4 -19,13 -22,22 -35,20 -35,-5 0,-18 -3,-19 -15,-9 -12,10 -16,9 -21,-3 -10,-27 23,-85 65,-113 23,-15 41,-31 41,-35 0,-16 73,-90 104,-106 45,-24 141,-22 197,4 52,23 111,78 135,125 25,49 30,146 10,206 -22,64 -84,135 -150,170 -45,24 -62,27 -146,27 -83,0 -101,-3 -145,-27 -63,-32 -140,-114 -168,-176 -33,-75 -28,-163 13,-241 98,-183 328,-258 503,-163 105,56 186,187 195,313 4,57 8,69 21,67 11,-2 15,3 13,16 -3,18 -2,18 13,6 22,-18 33,-1 27,41 -3,21 -23,49 -62,87 -31,32 -70,81 -86,110 -79,149 -286,267 -529,302 -78,11 -111,11 -206,0 z"
             inkscape:connector-curvature="0"
             style="fill:#008000" />
          <path
             id="path4020"
             d="m 3596,7625 c -11,-8 -15,-15 -9,-15 6,0 16,7 23,15 16,19 11,19 -14,0 z"
             inkscape:connector-curvature="0"
             style="fill:#008000" />
          <path
             id="path4022"
             d="m 3889,7613 c -13,-16 -12,-17 4,-4 9,7 17,15 17,17 0,8 -8,3 -21,-13 z"
             inkscape:connector-curvature="0"
             style="fill:#008000" />
          <path
             id="path4024"
             d="m 4108,7623 c 7,-3 16,-2 19,1 4,3 -2,6 -13,5 -11,0 -14,-3 -6,-6 z"
             inkscape:connector-curvature="0"
             style="fill:#008000" />
          <path
             id="path4026"
             d="m 4006,7612 c -2,-4 11,-6 30,-4 19,2 34,6 34,8 0,8 -59,4 -64,-4 z"
             inkscape:connector-curvature="0"
             style="fill:#008000" />
          <path
             id="path4028"
             d="m 5773,7601 c 12,-7 43,-34 68,-58 50,-48 119,-71 119,-39 0,9 -6,17 -12,17 -7,1 0,4 15,8 l 29,6 -21,27 c -26,32 -65,45 -153,50 -61,4 -65,3 -45,-11 z"
             inkscape:connector-curvature="0"
             style="fill:#008000" />
          <path
             id="path4030"
             d="m 3576,7571 c -21,-22 -25,-31 -14,-37 7,-4 10,-3 5,1 -4,5 5,21 20,37 15,15 24,28 22,28 -3,0 -18,-13 -33,-29 z"
             inkscape:connector-curvature="0"
             style="fill:#008000" />
          <path
             id="path4032"
             d="m 4035,7570 c 10,-11 20,-20 23,-20 3,0 -3,9 -13,20 -10,11 -20,20 -23,20 -3,0 3,-9 13,-20 z"
             inkscape:connector-curvature="0"
             style="fill:#008000" />
          <path
             id="path4034"
             d="m 4328,7583 c 6,-2 18,-2 25,0 6,3 1,5 -13,5 -14,0 -19,-2 -12,-5 z"
             inkscape:connector-curvature="0"
             style="fill:#008000" />
          <path
             id="path4036"
             d="m 3733,7563 c 0,-9 4,-10 14,-2 7,6 13,12 13,14 0,1 -6,2 -13,2 -8,0 -14,-6 -14,-14 z"
             inkscape:connector-curvature="0"
             style="fill:#008000" />
          <path
             id="path4038"
             d="m 4308,7553 c 7,-3 16,-2 19,1 4,3 -2,6 -13,5 -11,0 -14,-3 -6,-6 z"
             inkscape:connector-curvature="0"
             style="fill:#008000" />
          <path
             id="path4040"
             d="m 3865,7540 c 3,-5 8,-10 11,-10 2,0 4,5 4,10 0,6 -5,10 -11,10 -5,0 -7,-4 -4,-10 z"
             inkscape:connector-curvature="0"
             style="fill:#008000" />
          <path
             id="path4042"
             d="m 4370,7546 c 0,-2 8,-10 18,-17 15,-13 16,-12 3,4 -13,16 -21,21 -21,13 z"
             inkscape:connector-curvature="0"
             style="fill:#008000" />
          <path
             id="path4044"
             d="m 3709,7523 c -13,-16 -12,-17 4,-4 16,13 21,21 13,21 -2,0 -10,-8 -17,-17 z"
             inkscape:connector-curvature="0"
             style="fill:#008000" />
          <path
             id="path4046"
             d="m 4080,7536 c 0,-2 12,-12 28,-21 l 27,-18 -19,21 c -17,20 -36,29 -36,18 z"
             inkscape:connector-curvature="0"
             style="fill:#008000" />
          <path
             id="path4048"
             d="m 3536,7515 c -9,-26 -7,-32 5,-12 6,10 9,21 6,23 -2,3 -7,-2 -11,-11 z"
             inkscape:connector-curvature="0"
             style="fill:#008000" />
          <path
             id="path4050"
             d="m 3815,7499 c -4,-6 -5,-12 -2,-15 2,-3 7,2 10,11 7,17 1,20 -8,4 z"
             inkscape:connector-curvature="0"
             style="fill:#008000" />
          <path
             id="path4052"
             d="m 3610,7496 c 0,-2 8,-10 18,-17 15,-13 16,-12 3,4 -13,16 -21,21 -21,13 z"
             inkscape:connector-curvature="0"
             style="fill:#008000" />
          <path
             id="path4054"
             d="m 3970,7491 c 0,-6 4,-13 10,-16 6,-3 7,1 4,9 -7,18 -14,21 -14,7 z"
             inkscape:connector-curvature="0"
             style="fill:#008000" />
          <path
             id="path4056"
             d="m 4170,7480 c 8,-5 20,-10 25,-10 6,0 3,5 -5,10 -8,5 -19,10 -25,10 -5,0 -3,-5 5,-10 z"
             inkscape:connector-curvature="0"
             style="fill:#008000" />
          <path
             id="path4058"
             d="m 3639,7453 c -13,-17 -13,-17 6,-3 11,8 22,16 24,17 2,2 0,3 -6,3 -6,0 -17,-8 -24,-17 z"
             inkscape:connector-curvature="0"
             style="fill:#008000" />
          <path
             id="path4060"
             d="m 3796,7455 c -9,-26 -7,-32 5,-12 6,10 9,21 6,23 -2,3 -7,-2 -11,-11 z"
             inkscape:connector-curvature="0"
             style="fill:#008000" />
          <path
             id="path4062"
             d="m 7462,7465 c 2,-1 32,-28 67,-59 46,-40 72,-56 92,-56 31,0 36,9 17,28 -9,9 -7,12 10,12 12,0 22,4 22,10 0,18 -43,50 -74,54 -37,6 -138,14 -134,11 z"
             inkscape:connector-curvature="0"
             style="fill:#008000" />
          <path
             id="path4064"
             d="m 4248,7453 c 7,-3 16,-2 19,1 4,3 -2,6 -13,5 -11,0 -14,-3 -6,-6 z"
             inkscape:connector-curvature="0"
             style="fill:#008000" />
          <path
             id="path4066"
             d="m 4328,7443 c 7,-3 16,-2 19,1 4,3 -2,6 -13,5 -11,0 -14,-3 -6,-6 z"
             inkscape:connector-curvature="0"
             style="fill:#008000" />
          <path
             id="path4068"
             d="m 3576,7432 c -3,-5 1,-9 9,-9 8,0 12,4 9,9 -3,4 -7,8 -9,8 -2,0 -6,-4 -9,-8 z"
             inkscape:connector-curvature="0"
             style="fill:#008000" />
          <path
             id="path4070"
             d="m 4006,7417 c 3,-10 9,-15 12,-12 3,3 0,11 -7,18 -10,9 -11,8 -5,-6 z"
             inkscape:connector-curvature="0"
             style="fill:#008000" />
          <path
             id="path4072"
             d="m 3882,7320 c 0,-14 2,-19 5,-12 2,6 2,18 0,25 -3,6 -5,1 -5,-13 z"
             inkscape:connector-curvature="0"
             style="fill:#008000" />
          <path
             id="path4074"
             d="m 3781,7294 c 0,-11 3,-14 6,-6 3,7 2,16 -1,19 -3,4 -6,-2 -5,-13 z"
             inkscape:connector-curvature="0"
             style="fill:#008000" />
          <path
             id="path4076"
             d="m 4051,7294 c 0,-11 3,-14 6,-6 3,7 2,16 -1,19 -3,4 -6,-2 -5,-13 z"
             inkscape:connector-curvature="0"
             style="fill:#008000" />
          <path
             id="path4078"
             d="m 3859,7263 c -13,-16 -12,-17 4,-4 16,13 21,21 13,21 -2,0 -10,-8 -17,-17 z"
             inkscape:connector-curvature="0"
             style="fill:#008000" />
          <path
             id="path4080"
             d="m 3961,7271 c -9,-6 -6,-8 13,-8 14,0 23,3 20,8 -7,11 -15,11 -33,0 z"
             inkscape:connector-curvature="0"
             style="fill:#008000" />
          <path
             id="path4082"
             d="m 3797,7259 c 7,-7 15,-10 18,-7 3,3 -2,9 -12,12 -14,6 -15,5 -6,-5 z"
             inkscape:connector-curvature="0"
             style="fill:#008000" />
          <path
             id="path4084"
             d="m 3959,7231 c 13,-12 28,-21 34,-21 12,0 11,0 -28,24 l -30,17 z"
             inkscape:connector-curvature="0"
             style="fill:#008000" />
          <path
             id="path4086"
             d="m 4016,7222 c -3,-5 1,-9 9,-9 8,0 12,4 9,9 -3,4 -7,8 -9,8 -2,0 -6,-4 -9,-8 z"
             inkscape:connector-curvature="0"
             style="fill:#008000" />
          <path
             id="path4088"
             d="m 2566,5774 c -9,-8 -16,-26 -16,-39 0,-30 47,-118 98,-187 46,-61 81,-132 82,-166 0,-21 -6,-18 -66,28 -85,65 -128,87 -211,106 -139,32 -219,-14 -155,-88 9,-11 29,-18 49,-18 44,0 42,-16 -4,-25 -43,-8 -103,-63 -103,-94 0,-12 9,-30 21,-42 30,-30 77,-20 211,47 112,56 180,73 235,59 26,-6 23,-9 -60,-52 -107,-55 -187,-126 -221,-195 -42,-84 -32,-132 25,-130 33,1 47,12 75,58 9,15 11,5 7,-46 -4,-55 -2,-69 16,-91 29,-38 57,-42 89,-14 l 27,23 5,174 c 5,157 7,176 27,208 13,19 23,29 23,23 0,-16 78,-17 170,-3 80,13 199,69 235,112 59,70 4,136 -75,90 l -38,-22 25,45 c 29,53 32,108 7,136 -41,46 -93,8 -144,-106 -17,-38 -43,-96 -58,-128 -23,-52 -87,-125 -98,-114 -2,2 11,30 31,62 66,110 92,208 80,302 -5,39 -14,63 -30,79 -30,30 -40,30 -71,-2 -20,-20 -25,-33 -22,-60 5,-39 -7,-46 -16,-10 -3,14 -21,41 -40,60 -37,40 -82,48 -110,20 z"
             inkscape:connector-curvature="0"
             style="fill:#008000" />
          <path
             id="path4090"
             d="m 378,5389 c -25,-14 -22,-44 7,-67 33,-26 32,-29 -9,-24 -39,4 -71,-10 -86,-38 -8,-15 -6,-24 10,-40 18,-18 33,-20 143,-20 89,0 130,-4 151,-15 16,-9 31,-14 32,-12 6,6 -66,120 -94,150 -46,49 -125,83 -154,66 z"
             inkscape:connector-curvature="0"
             style="fill:#008000" />
          <path
             id="path4092"
             d="m 2726,5235 c 9,-24 39,-79 67,-121 63,-94 141,-154 210,-161 42,-5 47,-3 57,19 15,33 -2,73 -40,93 -16,8 -30,17 -30,19 0,1 25,1 55,-2 30,-2 65,-2 79,2 33,8 60,49 52,79 -10,40 -49,50 -216,56 -146,6 -158,8 -202,34 l -47,27 z"
             inkscape:connector-curvature="0"
             style="fill:#008000" />
          <path
             id="path4094"
             d="m 597,5090 c -2,-8 -1,-45 3,-82 9,-78 48,-168 86,-193 45,-29 77,3 56,57 -6,16 -8,28 -4,26 82,-44 132,-41 132,6 0,32 -46,67 -125,98 -34,13 -77,40 -102,63 -31,30 -43,37 -46,25 z"
             inkscape:connector-curvature="0"
             style="fill:#008000" />
          <path
             id="path4096"
             d="m 1910,4780 c -49,-9 -76,-25 -140,-83 -30,-28 -68,-56 -85,-63 -27,-12 -19,-13 83,-14 124,0 165,11 207,56 34,36 32,44 -12,44 -37,0 -37,0 -15,16 44,30 23,55 -38,44 z"
             inkscape:connector-curvature="0"
             style="fill:#008000" />
          <path
             id="path4098"
             d="m 586,4316 c -20,-230 26,-731 98,-1068 l 22,-108 -32,-126 c -45,-172 -50,-220 -27,-264 10,-19 30,-41 45,-50 25,-13 31,-13 55,0 16,9 32,29 38,48 5,17 12,32 15,32 3,0 16,-30 29,-67 153,-453 391,-893 690,-1276 l 88,-113 5,-124 c 5,-135 16,-171 64,-209 15,-12 36,-21 47,-21 16,0 19,5 13,31 l -6,30 27,-20 c 58,-46 69,32 16,114 -19,29 6,9 88,-70 354,-342 626,-528 998,-680 306,-125 578,-188 851,-199 l 95,-3 47,-69 c 48,-69 93,-104 135,-104 25,0 30,19 10,39 -10,11 -8,12 10,7 12,-4 24,-3 27,3 18,29 -42,72 -119,85 -48,8 -95,26 -95,36 0,4 37,10 83,13 113,8 227,39 324,88 240,120 329,378 207,598 -29,53 -25,65 8,21 l 23,-32 6,29 c 4,15 7,49 8,75 1,39 -3,50 -25,67 -34,27 -44,26 -44,-1 0,-20 -1,-20 -19,-4 -24,22 -44,11 -38,-20 2,-13 3,-24 1,-24 -2,0 -26,17 -53,38 -84,63 -160,87 -271,86 -106,-1 -151,-14 -240,-69 -31,-18 -69,-37 -85,-41 -76,-18 -135,-65 -135,-107 0,-14 5,-18 20,-14 17,4 19,1 14,-19 -5,-19 -2,-24 14,-24 18,0 20,-8 24,-77 7,-130 72,-228 186,-281 75,-35 183,-37 254,-5 63,29 142,109 157,159 7,21 20,54 28,73 8,19 17,50 20,70 4,30 0,40 -22,61 -26,24 -27,25 -41,6 -8,-11 -14,-14 -14,-8 0,7 -9,12 -20,12 -11,0 -20,-6 -20,-13 0,-10 -13,-13 -52,-10 -73,6 -129,-30 -164,-105 -14,-30 -23,-56 -20,-59 3,-4 12,10 20,29 42,100 136,153 202,115 28,-16 69,-66 78,-94 12,-39 -15,-103 -66,-155 -63,-65 -124,-92 -208,-92 -161,0 -296,129 -308,295 -4,65 -3,68 43,145 62,103 85,127 153,157 129,58 262,54 385,-10 168,-88 271,-279 238,-440 -56,-283 -338,-429 -790,-410 -162,7 -225,16 -386,54 l -110,26 39,14 c 40,13 76,39 76,55 0,4 -12,8 -27,8 h -28 l 25,20 c 25,20 25,20 5,36 -28,21 -73,12 -173,-38 l -83,-40 -100,37 c -136,52 -356,160 -476,235 -94,60 -235,161 -230,167 2,1 25,-9 52,-22 53,-27 94,-31 144,-14 38,14 40,36 4,51 l -28,11 30,6 c 44,9 41,42 -5,58 -47,16 -93,15 -165,-2 -112,-27 -114,-27 -243,87 -63,56 -167,158 -230,225 -64,67 -118,120 -121,118 -2,-3 13,-23 34,-45 21,-22 36,-42 33,-45 -3,-3 -24,15 -47,41 -27,31 -38,50 -30,54 7,5 -14,37 -58,90 -304,365 -562,828 -736,1323 -33,93 -35,111 -9,85 17,-17 71,-12 94,9 24,21 48,73 48,105 0,40 -40,106 -78,129 -102,61 -143,94 -164,127 -12,20 -25,39 -28,42 -8,6 -45,201 -64,335 -32,216 -39,311 -45,590 -6,259 -7,280 -15,191 z"
             inkscape:connector-curvature="0"
             style="fill:#008000" />
          <path
             id="path4100"
             d="m 449,4185 c -3,-2 -79,-20 -170,-38 -91,-19 -184,-44 -207,-56 -67,-34 -89,-102 -46,-145 20,-21 93,-21 122,0 12,8 22,11 22,5 0,-5 -4,-13 -10,-16 -5,-3 -10,-23 -10,-44 0,-49 26,-73 87,-78 39,-4 55,0 82,19 53,35 71,75 82,178 9,95 18,120 52,158 11,12 16,22 10,22 -5,0 -12,-2 -14,-5 z"
             inkscape:connector-curvature="0"
             style="fill:#008000" />
          <path
             id="path4102"
             d="m 674,3646 c 22,-33 46,-112 46,-151 0,-8 7,-33 16,-55 29,-72 121,-104 177,-60 35,28 41,53 22,90 -16,31 -16,31 4,21 28,-16 73,-13 99,5 30,21 29,65 -3,102 -29,35 -72,47 -225,62 -58,6 -118,13 -133,16 l -28,6 z"
             inkscape:connector-curvature="0"
             style="fill:#008000" />
          <path
             id="path4104"
             d="m 3050,3535 c -23,-27 -23,-94 0,-209 22,-111 22,-197 1,-211 -5,-2 -24,26 -42,62 -81,160 -263,288 -323,227 -31,-30 -11,-74 50,-111 15,-9 9,-10 -37,-6 -89,9 -141,-29 -125,-92 10,-38 61,-49 199,-42 137,7 199,-3 242,-38 l 30,-24 -55,-1 c -147,-1 -270,-40 -341,-109 -54,-52 -59,-71 -29,-101 26,-26 60,-25 94,1 14,11 26,19 26,17 0,-2 -11,-25 -25,-52 -14,-27 -25,-57 -25,-67 0,-32 23,-69 47,-75 40,-10 72,21 114,114 77,166 92,193 132,227 22,19 42,33 45,30 10,-10 86,39 145,95 132,123 181,301 84,300 -32,0 -44,-11 -67,-56 l -19,-39 -1,46 c 0,58 -17,107 -40,119 -27,15 -66,12 -80,-5 z"
             inkscape:connector-curvature="0"
             style="fill:#008000" />
          <path
             id="path4106"
             d="m 3360,3279 c -19,-12 -71,-56 -115,-97 -80,-75 -158,-121 -205,-122 l -25,-1 25,-14 c 139,-81 411,-86 441,-8 19,50 -31,90 -92,73 -31,-9 -31,-8 20,38 61,56 75,98 42,131 -27,27 -47,26 -91,0 z"
             inkscape:connector-curvature="0"
             style="fill:#008000" />
          <path
             id="path4108"
             d="m 1384,3185 c -28,-44 -7,-101 87,-230 32,-45 67,-101 77,-125 20,-47 35,-110 26,-110 -2,0 -20,14 -40,32 -108,98 -218,148 -341,156 -99,5 -133,-9 -133,-58 0,-50 39,-77 103,-71 35,4 15,-15 -30,-29 -62,-17 -113,-67 -113,-108 0,-44 23,-62 80,-62 39,0 70,11 165,60 128,66 176,82 243,82 77,0 69,-16 -34,-67 -156,-78 -274,-212 -274,-312 0,-34 29,-63 63,-63 19,0 63,40 82,74 8,13 9,-2 7,-58 -4,-73 -3,-76 27,-106 38,-39 75,-37 105,3 19,26 21,42 22,195 1,159 10,226 36,259 6,7 41,11 97,11 106,0 186,15 267,52 75,34 154,106 154,142 0,56 -82,78 -135,36 -31,-24 -31,-24 9,51 32,63 31,114 -5,144 -56,46 -116,-11 -179,-169 -48,-119 -82,-177 -131,-218 -40,-34 -48,-27 -16,16 70,94 117,229 117,340 0,107 -31,161 -86,150 -35,-6 -54,-39 -54,-92 v -45 l -30,55 c -39,71 -63,90 -111,90 -30,0 -42,-5 -55,-25 z"
             inkscape:connector-curvature="0"
             style="fill:#008000" />
          <path
             id="path4110"
             d="m 2996,3004 c -13,-68 15,-217 54,-294 31,-58 75,-100 107,-100 16,0 34,5 41,12 19,19 14,67 -9,100 l -21,30 54,-31 c 30,-17 68,-31 84,-31 32,0 74,31 74,55 0,34 -58,80 -169,132 -123,58 -167,88 -192,134 l -17,29 z"
             inkscape:connector-curvature="0"
             style="fill:#008000" />
          <path
             id="path4112"
             d="m 1550,2633 c 0,-5 22,-54 50,-109 57,-118 135,-205 220,-247 65,-32 93,-34 121,-6 36,36 17,86 -47,125 -15,9 -4,11 51,7 58,-4 75,-1 102,16 35,22 52,64 36,90 -24,39 -73,51 -213,51 -153,0 -235,16 -287,56 -18,14 -33,21 -33,17 z"
             inkscape:connector-curvature="0"
             style="fill:#008000" />
        </g>
        <g
           id="g4354"
           transform="matrix(0.01138287,0,0,-0.00820721,397.387,206.11792)"
           style="fill:#008000;stroke:none">
          <path
             id="path4200"
             d="m 2051,10224 c -29,-21 -60,-89 -61,-131 0,-36 -5,-38 -47,-22 -142,54 -296,17 -456,-110 -40,-32 -87,-76 -105,-98 -30,-39 -34,-40 -77,-36 -40,5 -45,3 -56,-21 -12,-25 -12,-25 -26,-6 -28,39 -73,18 -73,-33 0,-21 12,-41 40,-70 l 41,-40 -40,-81 c -67,-137 -86,-220 -84,-371 0,-97 6,-149 21,-207 82,-303 328,-578 638,-713 41,-18 77,-35 80,-38 15,-15 -393,-57 -556,-57 h -126 l -54,35 c -70,45 -162,51 -118,7 17,-17 10,-16 -84,14 -310,98 -638,379 -782,668 -106,215 -122,426 -50,658 42,132 120,217 200,218 62,0 144,-82 144,-145 0,-68 -87,-102 -165,-64 -36,17 -42,46 -20,88 8,17 11,31 6,31 -16,0 -31,-36 -31,-74 0,-45 32,-68 105,-74 47,-4 55,-1 83,24 32,30 35,38 33,92 -1,24 -12,45 -44,79 -38,40 -50,46 -94,50 -124,12 -206,-90 -254,-322 -48,-229 -5,-450 127,-661 30,-49 47,-81 36,-71 -24,21 -54,23 -46,2 5,-11 2,-13 -10,-9 -23,9 -20,-22 4,-46 22,-22 44,-32 95,-44 28,-7 29,-7 14,11 -9,10 -21,28 -28,40 -6,12 47,-36 117,-106 173,-173 353,-291 541,-354 39,-13 78,-30 87,-38 14,-11 72,-14 303,-13 274,0 296,2 536,37 343,49 481,61 654,54 630,-26 1141,-396 1330,-964 50,-150 71,-273 78,-454 5,-148 -7,-378 -24,-446 -5,-22 -6,-22 -47,11 -61,51 -217,140 -288,166 -35,13 -68,29 -74,37 -6,7 -14,40 -18,73 -29,257 -175,559 -369,766 -51,55 -62,75 -92,164 -44,129 -67,168 -119,191 -48,21 -65,12 -48,-26 12,-26 4,-33 -15,-14 -7,7 -19,9 -28,5 -17,-6 -17,-18 0,-59 6,-15 -2,-12 -41,12 -27,16 -80,44 -116,61 -59,28 -72,39 -107,95 -61,96 -97,133 -143,146 -51,13 -71,0 -44,-30 18,-20 18,-20 -9,-18 -42,3 -41,-20 2,-59 l 38,-35 -30,8 c -16,4 -91,8 -165,7 -197,-1 -342,-40 -765,-207 -279,-110 -249,-102 -362,-88 -262,32 -412,108 -444,226 -37,135 97,325 229,325 137,0 222,-146 163,-277 -25,-53 -68,-77 -128,-70 -82,9 -120,83 -76,146 12,18 13,23 2,19 -8,-3 -20,-21 -28,-42 -12,-33 -12,-41 2,-71 21,-45 57,-67 109,-67 93,-2 148,62 148,169 -1,105 -50,176 -140,199 -114,29 -220,-38 -276,-174 -86,-208 59,-347 409,-394 49,-7 82,-15 75,-19 -35,-20 -233,-61 -314,-66 -107,-7 -174,6 -257,50 -104,55 -194,178 -247,341 -20,60 -21,75 -11,124 18,90 14,169 -9,192 -26,26 -53,25 -87,-4 -22,-19 -28,-32 -27,-64 1,-39 1,-40 -24,-31 -49,19 -98,-42 -73,-90 17,-31 68,-53 136,-59 l 62,-4 13,-51 c 24,-96 99,-227 167,-295 35,-35 63,-65 63,-66 0,-2 -33,4 -74,12 -89,17 -140,10 -162,-23 -13,-21 -13,-27 0,-59 16,-38 47,-53 91,-42 23,6 24,5 15,-19 -11,-30 1,-69 25,-79 72,-27 124,38 127,159 0,39 3,45 17,39 109,-48 244,-58 389,-28 92,18 296,86 471,156 69,27 148,59 175,69 l 49,20 -32,-36 c -17,-20 -31,-47 -31,-61 0,-22 2,-23 21,-13 19,10 20,8 14,-10 -5,-15 -2,-21 9,-21 24,0 58,45 86,113 l 25,61 100,33 c 55,18 109,32 119,33 18,0 18,-1 3,-18 -24,-26 -22,-46 4,-39 17,4 19,3 10,-6 -18,-18 -13,-37 9,-37 29,0 70,23 100,55 51,56 109,85 169,85 255,-2 679,-232 900,-489 87,-102 217,-301 196,-301 -3,0 -23,16 -43,36 -56,54 -127,87 -190,88 -43,1 -57,-3 -68,-19 -14,-18 -13,-22 12,-41 26,-21 26,-22 5,-29 -27,-8 -29,-55 -3,-78 22,-20 73,-21 209,-6 86,9 98,9 109,-6 36,-49 130,-412 111,-431 -3,-3 -30,0 -59,7 -29,7 -87,12 -129,13 -99,0 -174,-34 -219,-99 -122,-177 20,-358 236,-304 53,14 94,57 94,100 0,60 -63,146 -124,169 -36,13 -76,-9 -76,-43 0,-21 1,-21 13,3 19,38 58,38 103,-2 37,-32 73,-97 74,-130 0,-35 -52,-78 -109,-88 -127,-23 -226,36 -238,143 -15,126 77,225 217,235 70,5 195,-13 218,-31 15,-12 16,-156 1,-412 -13,-225 -20,-266 -30,-180 -8,74 -22,111 -48,124 -54,29 -88,-3 -77,-72 7,-39 6,-40 -12,-24 -48,44 -98,-1 -89,-79 6,-59 43,-98 121,-126 32,-12 72,-33 87,-46 27,-22 29,-28 29,-103 0,-69 -2,-79 -18,-79 -27,0 -42,-20 -42,-58 v -35 l -24,26 c -34,37 -60,27 -52,-21 7,-49 49,-107 101,-144 25,-18 43,-33 41,-36 -11,-10 -54,15 -107,64 -62,57 -105,76 -120,53 -15,-23 -10,-36 22,-63 30,-26 30,-26 6,-26 -14,0 -31,-7 -38,-16 -11,-14 -10,-19 10,-35 29,-23 107,-25 176,-4 100,30 69,-19 -49,-79 -76,-38 -95,-58 -75,-82 15,-18 49,-18 77,2 25,17 28,13 10,-16 -10,-16 -10,-23 4,-36 24,-24 52,-4 81,58 l 25,52 12,-60 c 47,-236 126,-436 244,-619 281,-432 829,-776 1421,-894 153,-31 330,-51 444,-51 49,0 67,-4 78,-18 12,-14 14,-14 10,-1 -5,14 10,17 101,23 376,24 722,122 1032,291 127,70 440,260 570,348 152,101 215,151 307,241 46,44 85,78 87,75 2,-2 -5,-38 -16,-79 -29,-108 -35,-298 -14,-420 31,-175 135,-441 280,-715 66,-123 98,-206 131,-327 70,-261 74,-659 9,-888 -22,-77 -90,-176 -186,-272 -174,-174 -317,-232 -435,-178 -124,56 -136,166 -30,275 82,84 154,92 197,23 14,-23 20,-28 20,-15 0,31 -54,77 -90,77 -43,0 -100,-31 -144,-80 -47,-52 -66,-96 -66,-152 0,-62 28,-101 97,-134 68,-34 143,-37 208,-9 161,69 390,302 438,445 63,188 70,538 17,811 -32,166 -67,259 -188,504 -198,398 -261,596 -262,816 0,118 47,326 96,421 29,55 13,50 -22,-8 -46,-77 -70,-102 -181,-185 -93,-70 -317,-209 -337,-209 -18,0 -84,48 -95,69 -10,17 -4,19 82,23 90,5 230,39 242,58 8,13 8,13 -56,-10 -67,-23 -165,-40 -236,-40 h -52 l -36,59 c -43,72 -86,101 -146,101 -44,0 -109,-30 -109,-50 0,-20 -29,-9 -106,41 -169,110 -317,289 -369,444 -25,73 -27,90 -23,190 4,85 11,129 33,192 27,82 28,83 69,93 94,25 173,53 203,73 38,26 69,78 60,101 -6,15 -9,16 -38,0 l -31,-16 16,23 c 24,35 20,49 -14,49 -39,0 -97,-52 -148,-134 -39,-61 -72,-97 -72,-79 0,25 109,174 174,239 95,95 161,126 278,132 69,3 101,0 156,-17 115,-35 226,-130 269,-231 22,-50 34,-146 27,-208 -5,-44 -9,-52 -24,-47 -21,7 -50,-19 -50,-44 0,-10 9,-30 20,-44 l 21,-26 -26,-22 c -14,-13 -25,-31 -25,-41 0,-10 -19,-31 -42,-48 -107,-78 -270,-4 -324,147 -19,55 -17,93 9,143 39,78 120,114 207,91 63,-16 100,-58 100,-114 0,-53 -30,-104 -67,-113 -59,-15 -174,83 -143,121 9,11 9,15 1,15 -19,0 -24,-28 -10,-61 27,-66 124,-108 180,-79 49,27 69,139 32,188 -53,72 -189,82 -268,20 -133,-104 -44,-356 141,-399 59,-14 119,-1 162,36 28,24 29,24 83,8 46,-14 65,-14 123,-4 37,6 91,22 119,35 l 50,25 28,-30 c 15,-17 37,-55 48,-85 34,-90 60,-134 88,-147 22,-10 28,-8 43,11 14,17 16,30 10,57 -4,20 -14,42 -20,50 -8,10 -9,15 -2,15 6,0 14,-4 17,-10 9,-14 48,-13 63,2 19,19 14,42 -15,71 -47,44 -119,70 -210,75 l -83,5 -12,38 c -9,32 -8,58 7,140 21,116 15,152 -26,157 -34,4 -52,-20 -59,-77 l -5,-46 -15,30 c -12,23 -22,30 -45,30 -27,0 -30,-3 -33,-37 -6,-67 57,-160 149,-218 27,-18 48,-35 45,-37 -14,-14 -85,27 -153,89 l -78,71 3,81 c 4,104 -17,184 -67,258 l -39,56 34,-5 c 18,-3 41,-2 51,1 17,7 17,8 -1,22 -19,14 -19,14 2,14 33,0 27,27 -10,51 -29,18 -43,19 -118,14 -69,-5 -95,-2 -140,14 -175,61 -328,24 -466,-113 -107,-108 -179,-222 -222,-356 -84,-259 -30,-467 178,-683 74,-78 243,-207 271,-207 5,0 9,-12 9,-26 0,-16 12,-37 31,-55 l 31,-29 h -35 c -51,0 -85,-16 -98,-44 -27,-59 27,-116 112,-116 36,0 283,54 347,75 6,2 12,0 12,-4 0,-10 -184,-89 -280,-120 -183,-59 -436,-101 -604,-101 -108,0 -95,-15 -120,142 -26,161 -56,208 -134,208 -55,0 -90,-68 -62,-121 10,-17 8,-18 -16,-8 -55,20 -106,-8 -123,-68 -11,-37 8,-87 39,-103 44,-23 10,-19 -111,14 -323,89 -567,233 -814,481 -140,139 -264,303 -323,426 -50,104 -100,403 -109,659 -16,441 100,648 304,543 106,-54 156,-245 90,-345 -50,-74 -122,-82 -230,-25 l -58,30 6,56 c 10,83 22,124 45,149 27,29 36,28 100,-11 42,-25 56,-39 60,-62 5,-25 7,-27 13,-11 11,29 -14,59 -82,95 -60,32 -61,32 -85,14 -34,-25 -55,-81 -63,-167 l -6,-73 73,-37 c 87,-43 140,-47 191,-13 84,56 104,193 44,312 -38,75 -92,116 -164,123 -68,6 -95,-2 -141,-44 -76,-69 -109,-210 -110,-471 0,-176 24,-412 55,-538 8,-33 14,-67 14,-75 0,-21 -54,86 -171,340 -224,482 -343,680 -532,878 -54,57 -60,67 -57,100 2,31 17,52 88,125 96,100 128,158 120,220 -8,59 -23,68 -53,32 l -24,-30 v 36 c 0,40 -16,54 -41,35 -22,-15 -49,-70 -49,-97 0,-12 -3,-20 -6,-17 -3,4 -7,61 -10,128 -18,477 -219,887 -563,1145 -173,131 -423,235 -658,275 -187,32 -479,25 -760,-19 -29,-4 -54,-4 -55,1 -2,5 -37,23 -79,41 -84,37 -170,88 -244,145 -50,38 -50,39 -49,93 0,29 4,77 9,106 6,42 4,58 -9,78 -20,30 -36,32 -36,5 0,-11 -4,-20 -10,-20 -5,0 -10,7 -10,15 0,25 -29,17 -36,-11 -11,-42 3,-94 41,-152 20,-29 34,-56 32,-58 -9,-9 -142,144 -197,227 -118,179 -169,375 -149,572 15,146 91,330 174,418 25,27 45,57 45,68 0,28 136,162 223,219 144,94 280,107 419,39 109,-52 158,-116 158,-205 0,-138 -149,-292 -282,-292 -89,0 -148,44 -194,145 -59,127 -37,243 57,293 38,20 54,23 119,20 78,-5 131,-25 197,-74 78,-59 33,-176 -82,-214 -72,-24 -114,12 -101,85 7,34 10,37 37,33 37,-6 38,7 2,17 -36,9 -53,-15 -53,-72 0,-78 58,-104 145,-64 94,43 130,131 83,200 -27,40 -111,86 -187,102 -148,31 -263,-54 -262,-193 1,-184 134,-320 281,-287 90,20 190,104 231,192 36,81 19,212 -35,256 -26,22 -18,30 20,19 49,-13 111,-1 129,25 20,29 19,49 -6,82 -19,23 -28,26 -64,23 -38,-3 -42,-1 -34,14 16,29 10,56 -17,77 -32,25 -43,26 -73,5 z m 429,-2364 c 8,-5 11,-10 5,-10 -5,0 -17,5 -25,10 -8,5 -10,10 -5,10 6,0 17,-5 25,-10 z M 3890,6502 c -9,-13 -10,-4 -6,38 3,30 7,75 8,100 1,25 4,8 5,-38 2,-49 -1,-89 -7,-100 z m -324,53 c 79,-36 190,-107 246,-157 l 38,-33 -25,-133 c -14,-74 -50,-247 -79,-385 -30,-139 -60,-287 -66,-329 l -13,-77 -23,16 c -16,10 -33,13 -51,8 l -28,-7 23,25 c 31,33 20,61 -20,53 -40,-8 -84,-41 -118,-88 l -28,-39 -8,78 c -8,88 2,531 16,698 5,61 9,179 9,263 l 1,152 28,-6 c 15,-4 59,-22 98,-39 z m 378,-277 c 177,-199 278,-367 486,-813 260,-558 366,-724 609,-958 278,-266 614,-425 1031,-487 104,-16 389,-13 515,5 298,42 619,159 850,309 47,31 85,53 85,49 0,-27 -623,-420 -827,-522 -308,-153 -612,-233 -973,-255 l -95,-6 -122,183 c -154,229 -267,372 -408,512 -224,223 -404,312 -614,303 -83,-3 -103,-8 -151,-33 -33,-19 -66,-47 -85,-73 -27,-40 -30,-51 -30,-125 0,-45 3,-94 8,-109 5,-21 4,-28 -7,-28 -8,0 -26,-14 -41,-32 -23,-28 -27,-39 -23,-80 6,-54 7,-54 -73,11 -88,72 -215,256 -294,426 -86,182 -139,426 -117,535 14,66 16,164 3,188 -12,23 12,199 55,407 28,136 108,532 130,643 2,12 8,22 13,22 5,0 39,-33 75,-72 z m -534,-876 c 0,-20 -4,-31 -10,-27 -5,3 -10,25 -10,48 0,31 3,38 10,27 5,-8 10,-30 10,-48 z m 246,-57 c -8,-30 -40,-35 -91,-14 -22,9 -64,20 -92,24 -29,4 -53,11 -53,15 0,17 73,29 135,23 37,-3 70,-1 81,5 16,9 20,7 22,-10 2,-11 1,-31 -2,-43 z m -160,-109 c 42,-114 63,-157 112,-225 38,-54 48,-78 64,-157 35,-178 112,-357 224,-525 30,-45 53,-83 52,-85 -7,-6 -144,151 -210,240 -154,208 -272,519 -304,801 l -7,60 21,-19 c 12,-10 33,-50 48,-90 z m 3829,-56 c 3,-5 -1,-10 -10,-10 -9,0 -13,5 -10,10 3,6 8,10 10,10 2,0 7,-4 10,-10 z M 4625,4575 c 257,-54 557,-332 878,-813 53,-80 97,-150 97,-155 0,-20 -370,18 -534,54 -258,57 -555,177 -762,309 -57,35 -50,37 37,9 76,-24 106,-42 136,-77 l 22,-27 -1,25 c -1,14 -1,46 0,71 l 2,46 49,7 c 60,8 149,52 174,87 79,109 -42,312 -185,312 -42,0 -71,-21 -94,-65 -11,-21 -22,-28 -43,-28 -43,0 -74,-39 -69,-89 4,-43 -2,-50 -21,-27 -7,8 -25,17 -40,21 -66,14 -69,188 -4,265 66,79 203,108 358,75 z m -10,-188 c 76,-43 135,-150 120,-218 -14,-63 -92,-118 -188,-132 l -38,-6 7,97 c 3,53 7,99 7,102 2,13 -35,70 -54,84 -26,18 -19,47 18,76 33,26 78,25 128,-3 z m 1580,-357 c 5,-7 -16,-9 -62,-4 -89,9 -93,14 -10,14 36,0 69,-5 72,-10 z"
             inkscape:connector-curvature="0"
             style="fill:#008000" />
          <path
             id="path4202"
             d="m 1010,9275 c 0,-9 -6,-12 -15,-9 -24,10 -18,-34 8,-59 63,-59 87,-76 87,-59 -1,36 -22,108 -37,124 -20,22 -43,23 -43,3 z"
             inkscape:connector-curvature="0"
             style="fill:#008000" />
          <path
             id="path4204"
             d="m 2456,8451 c -3,-5 1,-17 10,-25 14,-15 13,-16 -11,-16 -19,0 -26,-5 -23,-16 5,-29 50,-53 127,-69 41,-9 81,-21 90,-28 12,-10 13,-9 6,3 -25,43 -88,122 -108,134 -30,19 -84,29 -91,17 z"
             inkscape:connector-curvature="0"
             style="fill:#008000" />
          <path
             id="path4206"
             d="m 3285,8220 c -3,-5 -1,-19 5,-31 11,-20 11,-20 -15,-3 -19,12 -29,14 -37,6 -23,-23 5,-68 93,-153 74,-71 89,-81 85,-60 -3,14 -8,51 -11,81 -10,77 -37,135 -74,154 -35,19 -38,19 -46,6 z"
             inkscape:connector-curvature="0"
             style="fill:#008000" />
          <path
             id="path4208"
             d="m 2031,8204 c -20,-15 -23,-23 -19,-65 5,-44 3,-47 -13,-39 -27,15 -47,12 -69,-10 -28,-28 -26,-74 6,-99 30,-24 124,-45 163,-36 27,6 29,10 40,88 13,87 8,130 -17,160 -19,21 -60,22 -91,1 z"
             inkscape:connector-curvature="0"
             style="fill:#008000" />
          <path
             id="path4210"
             d="m 4064,8114 c -19,-15 -19,-15 1,-5 18,8 21,6 22,-12 0,-12 -1,-17 -4,-10 -8,23 -52,-6 -53,-34 0,-14 18,-10 67,15 26,13 34,13 47,3 19,-16 22,0 5,30 -8,16 -14,18 -24,9 -8,-7 -15,-7 -19,-1 -3,5 0,12 6,14 7,3 4,6 -8,6 -11,1 -29,-6 -40,-15 z"
             inkscape:connector-curvature="0"
             style="fill:#008000" />
          <path
             id="path4212"
             d="m 4284,8098 c -36,-43 -56,-94 -49,-121 5,-17 4,-19 -4,-7 -9,13 -11,12 -11,-6 0,-11 3,-24 6,-27 13,-13 53,-120 48,-129 -3,-4 3,-5 12,-1 13,5 15,3 9,-8 -7,-10 -3,-10 15,3 14,9 24,21 23,27 -2,6 3,8 11,5 8,-3 20,4 28,15 8,12 17,18 20,16 3,-3 8,3 10,13 4,13 0,19 -10,18 -8,0 -16,7 -17,17 -3,18 10,23 20,7 3,-5 11,-10 16,-10 6,0 7,5 3,12 -4,7 -3,8 5,4 6,-4 9,-12 6,-17 -15,-24 49,0 83,31 21,19 29,28 18,19 -41,-32 -49,-34 -36,-9 8,15 8,20 1,16 -6,-4 -11,0 -11,8 0,9 -5,16 -11,16 -5,0 -8,-4 -5,-8 3,-5 -2,-9 -10,-9 -10,0 -11,4 -4,11 14,14 12,29 -4,23 -9,-4 -12,2 -10,19 2,20 0,22 -16,14 -10,-5 -28,-22 -39,-36 -24,-31 -28,-19 -6,22 16,31 19,55 8,53 -20,-3 -34,2 -28,10 3,5 1,13 -5,16 -6,4 -9,1 -8,-6 3,-12 -8,-14 -43,-10 -8,1 -8,6 1,16 15,18 51,20 70,3 12,-11 12,-10 1,5 -21,27 -56,21 -87,-15 z m 184,-183 c -3,-3 -9,2 -12,12 -6,14 -5,15 5,6 7,-7 10,-15 7,-18 z"
             inkscape:connector-curvature="0"
             style="fill:#008000" />
          <path
             id="path4214"
             d="m 4120,8055 c -7,-8 -9,-15 -4,-15 4,0 -11,-17 -35,-39 -26,-23 -41,-45 -39,-56 2,-13 -4,-19 -21,-20 -23,-2 -23,-1 -5,13 18,13 17,14 -11,8 -16,-4 -34,-12 -40,-19 -12,-15 -37,-16 -47,-2 -5,6 -8,6 -8,-1 0,-42 138,-188 167,-177 10,4 14,2 9,-5 -3,-6 -2,-13 3,-16 5,-3 7,10 4,29 -3,19 0,35 5,35 14,0 31,74 40,173 9,93 4,118 -18,92 z"
             inkscape:connector-curvature="0"
             style="fill:#008000" />
          <path
             id="path4216"
             d="m 4541,8043 c 7,-12 15,-20 18,-17 3,2 -3,12 -13,22 -17,16 -18,16 -5,-5 z"
             inkscape:connector-curvature="0"
             style="fill:#008000" />
          <path
             id="path4218"
             d="m 4031,8014 c 0,-11 3,-14 6,-6 3,7 2,16 -1,19 -3,4 -6,-2 -5,-13 z"
             inkscape:connector-curvature="0"
             style="fill:#008000" />
          <path
             id="path4220"
             d="m 4163,7965 c 0,-38 2,-53 4,-32 2,20 2,52 0,70 -2,17 -4,1 -4,-38 z"
             inkscape:connector-curvature="0"
             style="fill:#008000" />
          <path
             id="path4222"
             d="m 4534,8011 c 20,-22 26,-25 26,-13 0,4 -10,13 -22,21 -23,14 -23,14 -4,-8 z"
             inkscape:connector-curvature="0"
             style="fill:#008000" />
          <path
             id="path4224"
             d="m 3988,7992 c 9,-10 19,-17 21,-16 6,5 -20,34 -30,34 -5,0 -1,-8 9,-18 z"
             inkscape:connector-curvature="0"
             style="fill:#008000" />
          <path
             id="path4226"
             d="m 4212,7895 c 0,-16 2,-22 5,-12 2,9 2,23 0,30 -3,6 -5,-1 -5,-18 z"
             inkscape:connector-curvature="0"
             style="fill:#008000" />
          <path
             id="path4228"
             d="m 4211,7844 c 0,-11 3,-14 6,-6 3,7 2,16 -1,19 -3,4 -6,-2 -5,-13 z"
             inkscape:connector-curvature="0"
             style="fill:#008000" />
          <path
             id="path4230"
             d="m 4212,7795 c 0,-16 2,-22 5,-12 2,9 2,23 0,30 -3,6 -5,-1 -5,-18 z"
             inkscape:connector-curvature="0"
             style="fill:#008000" />
          <path
             id="path4232"
             d="m 4160,7789 c 0,-13 5,-31 10,-39 7,-11 8,-5 4,20 -8,43 -14,51 -14,19 z"
             inkscape:connector-curvature="0"
             style="fill:#008000" />
          <path
             id="path4234"
             d="m 4233,7753 c -7,-2 -13,-12 -13,-21 1,-15 2,-15 11,1 6,9 15,14 21,11 7,-4 8,-2 4,4 -4,7 -8,12 -9,11 -1,0 -8,-3 -14,-6 z"
             inkscape:connector-curvature="0"
             style="fill:#008000" />
          <path
             id="path4236"
             d="m 4398,7743 c 7,-3 16,-2 19,1 4,3 -2,6 -13,5 -11,0 -14,-3 -6,-6 z"
             inkscape:connector-curvature="0"
             style="fill:#008000" />
          <path
             id="path4238"
             d="m 4498,7743 c 6,-2 18,-2 25,0 6,3 1,5 -13,5 -14,0 -19,-2 -12,-5 z"
             inkscape:connector-curvature="0"
             style="fill:#008000" />
          <path
             id="path4240"
             d="m 4548,7743 c 7,-3 16,-2 19,1 4,3 -2,6 -13,5 -11,0 -14,-3 -6,-6 z"
             inkscape:connector-curvature="0"
             style="fill:#008000" />
          <path
             id="path4242"
             d="m 3770,7720 c -9,-6 -10,-10 -3,-10 6,0 15,5 18,10 8,12 4,12 -15,0 z"
             inkscape:connector-curvature="0"
             style="fill:#008000" />
          <path
             id="path4244"
             d="m 4270,7710 c 0,-5 4,-10 9,-10 5,0 18,-3 28,-6 16,-5 16,-4 -1,10 -23,18 -36,20 -36,6 z"
             inkscape:connector-curvature="0"
             style="fill:#008000" />
          <path
             id="path4246"
             d="m 4650,7717 c 0,-2 15,-14 33,-27 20,-15 27,-17 18,-6 -13,16 -51,41 -51,33 z"
             inkscape:connector-curvature="0"
             style="fill:#008000" />
          <path
             id="path4248"
             d="m 4226,7697 c 3,-10 9,-15 12,-12 3,3 0,11 -7,18 -10,9 -11,8 -5,-6 z"
             inkscape:connector-curvature="0"
             style="fill:#008000" />
          <path
             id="path4250"
             d="m 4163,7689 c 9,-6 21,-8 26,-4 5,3 12,0 14,-5 3,-6 5,-5 3,1 -1,7 -15,13 -31,15 -24,2 -27,1 -12,-7 z"
             inkscape:connector-curvature="0"
             style="fill:#008000" />
          <path
             id="path4252"
             d="m 4387,7664 c 5,-13 3,-15 -8,-9 -8,4 -1,-6 15,-23 17,-18 32,-32 35,-32 2,0 -5,10 -16,23 -11,12 -19,27 -16,34 2,6 -1,14 -6,18 -7,4 -8,0 -4,-11 z"
             inkscape:connector-curvature="0"
             style="fill:#008000" />
          <path
             id="path4254"
             d="m 3751,7658 c -1,-22 11,-29 29,-16 12,8 12,9 -2,4 -10,-3 -18,1 -21,12 -4,16 -5,16 -6,0 z"
             inkscape:connector-curvature="0"
             style="fill:#008000" />
          <path
             id="path4256"
             d="m 2236,7649 c -237,-36 -443,-155 -520,-301 -16,-29 -55,-78 -86,-109 -38,-38 -59,-68 -64,-90 -8,-40 6,-58 29,-39 15,12 16,11 13,-6 -2,-13 2,-18 13,-16 13,2 17,-10 21,-67 16,-219 210,-384 413,-351 123,20 244,108 294,215 31,66 33,161 3,227 -27,62 -104,143 -167,176 -44,24 -62,27 -145,27 -84,0 -101,-3 -146,-27 -102,-54 -164,-155 -164,-267 1,-99 63,-191 159,-234 56,-26 152,-28 197,-4 31,16 104,90 104,106 0,4 18,20 41,35 42,28 75,86 65,113 -5,12 -9,13 -21,3 -12,-10 -15,-9 -15,9 0,25 -13,27 -35,5 -9,-9 -17,-15 -19,-13 -1,2 -15,25 -29,51 -71,123 -239,138 -317,27 -58,-80 -22,-163 79,-184 21,-5 31,-4 27,3 -3,5 -21,13 -40,16 -36,7 -86,55 -86,83 0,32 35,86 73,114 83,60 204,25 257,-74 l 24,-46 -17,-68 c -10,-37 -19,-76 -21,-85 -7,-51 -89,-98 -168,-98 -67,0 -125,26 -176,80 -95,97 -94,240 3,348 61,68 127,96 225,96 98,0 161,-27 230,-100 66,-70 90,-122 90,-200 1,-213 -263,-383 -472,-304 -112,42 -203,156 -228,287 -13,63 -11,89 12,208 31,155 135,279 301,359 123,60 189,76 331,83 177,9 322,-23 491,-108 114,-58 196,-118 313,-233 56,-55 102,-95 102,-90 0,15 -166,177 -229,225 -221,165 -521,253 -745,218 z"
             inkscape:connector-curvature="0"
             style="fill:#008000" />
          <path
             id="path4258"
             d="m 4700,7652 c 0,-6 -7,-18 -16,-26 -8,-9 -11,-16 -5,-16 13,0 35,39 27,48 -3,3 -6,0 -6,-6 z"
             inkscape:connector-curvature="0"
             style="fill:#008000" />
          <path
             id="path4260"
             d="m 4584,7625 c 11,-8 24,-15 30,-15 5,0 1,7 -10,15 -10,8 -23,14 -29,14 -5,0 -1,-6 9,-14 z"
             inkscape:connector-curvature="0"
             style="fill:#008000" />
          <path
             id="path4262"
             d="m 4627,7625 c 3,-8 9,-12 14,-9 12,7 11,11 -5,17 -10,4 -13,1 -9,-8 z"
             inkscape:connector-curvature="0"
             style="fill:#008000" />
          <path
             id="path4264"
             d="m 4068,7623 c 6,-2 18,-2 25,0 6,3 1,5 -13,5 -14,0 -19,-2 -12,-5 z"
             inkscape:connector-curvature="0"
             style="fill:#008000" />
          <path
             id="path4266"
             d="m 4200,7622 c 0,-4 -19,-7 -42,-6 l -43,2 40,-6 40,-7 -29,-23 c -16,-12 -27,-24 -24,-27 2,-3 22,13 43,35 22,22 34,40 27,40 -7,0 -12,-3 -12,-8 z"
             inkscape:connector-curvature="0"
             style="fill:#008000" />
          <path
             id="path4268"
             d="m 4301,7613 c 7,-12 15,-20 18,-17 3,2 -3,12 -13,22 -17,16 -18,16 -5,-5 z"
             inkscape:connector-curvature="0"
             style="fill:#008000" />
          <path
             id="path4270"
             d="m 2359,7611 c -80,-7 -120,-25 -140,-62 -10,-20 -9,-21 16,-17 19,4 23,2 16,-5 -21,-21 -12,-37 20,-37 22,0 44,12 82,48 29,27 63,56 77,65 13,9 20,16 15,15 -6,0 -44,-4 -86,-7 z"
             inkscape:connector-curvature="0"
             style="fill:#008000" />
          <path
             id="path4272"
             d="m 4526,7612 c -3,-5 1,-9 9,-9 8,0 12,4 9,9 -3,4 -7,8 -9,8 -2,0 -6,-4 -9,-8 z"
             inkscape:connector-curvature="0"
             style="fill:#008000" />
          <path
             id="path4274"
             d="m 4590,7597 c 0,-2 15,-16 33,-33 l 32,-29 -29,33 c -28,30 -36,37 -36,29 z"
             inkscape:connector-curvature="0"
             style="fill:#008000" />
          <path
             id="path4276"
             d="m 4340,7561 c 5,-11 15,-23 21,-27 6,-3 3,5 -6,20 -20,30 -30,35 -15,7 z"
             inkscape:connector-curvature="0"
             style="fill:#008000" />
          <path
             id="path4278"
             d="m 4467,7543 c 31,-40 42,-44 14,-4 -11,15 -18,30 -16,33 3,3 -1,5 -9,5 -10,0 -7,-10 11,-34 z"
             inkscape:connector-curvature="0"
             style="fill:#008000" />
          <path
             id="path4280"
             d="m 3812,7537 c -8,-10 -6,-13 7,-13 11,0 17,6 14,13 -3,7 -6,13 -8,13 -1,0 -7,-6 -13,-13 z"
             inkscape:connector-curvature="0"
             style="fill:#008000" />
          <path
             id="path4282"
             d="m 4089,7523 c -13,-15 -12,-15 9,-4 23,12 28,21 13,21 -5,0 -15,-7 -22,-17 z"
             inkscape:connector-curvature="0"
             style="fill:#008000" />
          <path
             id="path4284"
             d="m 4051,7516 c -9,-11 -9,-16 1,-22 7,-4 10,-4 6,1 -4,4 -3,14 3,22 6,7 9,13 6,13 -2,0 -10,-6 -16,-14 z"
             inkscape:connector-curvature="0"
             style="fill:#008000" />
          <path
             id="path4286"
             d="m 4650,7525 c 0,-5 5,-17 10,-25 5,-8 10,-10 10,-5 0,6 -5,17 -10,25 -5,8 -10,11 -10,5 z"
             inkscape:connector-curvature="0"
             style="fill:#008000" />
          <path
             id="path4288"
             d="m 4376,7497 c 3,-10 9,-15 12,-12 3,3 0,11 -7,18 -10,9 -11,8 -5,-6 z"
             inkscape:connector-curvature="0"
             style="fill:#008000" />
          <path
             id="path4290"
             d="m 4216,7483 c -6,-14 -5,-15 5,-6 7,7 10,15 7,18 -3,3 -9,-2 -12,-12 z"
             inkscape:connector-curvature="0"
             style="fill:#008000" />
          <path
             id="path4292"
             d="m 4569,7483 c -12,-16 -12,-17 2,-6 9,7 20,9 24,5 5,-4 5,-1 1,6 -9,16 -11,15 -27,-5 z"
             inkscape:connector-curvature="0"
             style="fill:#008000" />
          <path
             id="path4294"
             d="m 3996,7475 c -25,-19 -9,-19 24,0 14,8 19,14 10,14 -8,0 -24,-6 -34,-14 z"
             inkscape:connector-curvature="0"
             style="fill:#008000" />
          <path
             id="path4296"
             d="m 4651,7453 c -10,-26 -10,-27 4,-9 8,11 15,23 15,28 0,15 -7,8 -19,-19 z"
             inkscape:connector-curvature="0"
             style="fill:#008000" />
          <path
             id="path4298"
             d="m 639,7460 c -51,-5 -82,-18 -101,-45 -13,-17 -9,-25 14,-25 17,0 19,-3 10,-12 -19,-19 -14,-28 17,-28 20,0 46,16 92,56 35,31 65,58 67,59 4,3 -20,2 -99,-5 z"
             inkscape:connector-curvature="0"
             style="fill:#008000" />
          <path
             id="path4300"
             d="m 4390,7465 c 0,-5 5,-17 10,-25 5,-8 10,-10 10,-5 0,6 -5,17 -10,25 -5,8 -10,11 -10,5 z"
             inkscape:connector-curvature="0"
             style="fill:#008000" />
          <path
             id="path4302"
             d="m 4531,7467 c 2,-1 13,-9 24,-17 19,-14 19,-14 6,3 -7,9 -18,17 -24,17 -6,0 -8,-1 -6,-3 z"
             inkscape:connector-curvature="0"
             style="fill:#008000" />
          <path
             id="path4304"
             d="m 3938,7453 c 7,-3 16,-2 19,1 4,3 -2,6 -13,5 -11,0 -14,-3 -6,-6 z"
             inkscape:connector-curvature="0"
             style="fill:#008000" />
          <path
             id="path4306"
             d="m 4196,7443 c -6,-14 -5,-15 5,-6 7,7 10,15 7,18 -3,3 -9,-2 -12,-12 z"
             inkscape:connector-curvature="0"
             style="fill:#008000" />
          <path
             id="path4308"
             d="m 3848,7443 c 6,-2 18,-2 25,0 6,3 1,5 -13,5 -14,0 -19,-2 -12,-5 z"
             inkscape:connector-curvature="0"
             style="fill:#008000" />
          <path
             id="path4310"
             d="m 4606,7432 c -3,-5 1,-9 9,-9 8,0 12,4 9,9 -3,4 -7,8 -9,8 -2,0 -6,-4 -9,-8 z"
             inkscape:connector-curvature="0"
             style="fill:#008000" />
          <path
             id="path4312"
             d="m 4411,7354 c 0,-11 3,-14 6,-6 3,7 2,16 -1,19 -3,4 -6,-2 -5,-13 z"
             inkscape:connector-curvature="0"
             style="fill:#008000" />
          <path
             id="path4314"
             d="m 4282,7340 c 0,-14 2,-19 5,-12 2,6 2,18 0,25 -3,6 -5,1 -5,-13 z"
             inkscape:connector-curvature="0"
             style="fill:#008000" />
          <path
             id="path4316"
             d="m 4312,7315 c 0,-16 2,-22 5,-12 2,9 2,23 0,30 -3,6 -5,-1 -5,-18 z"
             inkscape:connector-curvature="0"
             style="fill:#008000" />
          <path
             id="path4318"
             d="m 4140,7283 c 0,-18 2,-33 4,-33 9,0 13,39 5,51 -6,10 -9,4 -9,-18 z"
             inkscape:connector-curvature="0"
             style="fill:#008000" />
          <path
             id="path4320"
             d="m 4411,7294 c 0,-11 3,-14 6,-6 3,7 2,16 -1,19 -3,4 -6,-2 -5,-13 z"
             inkscape:connector-curvature="0"
             style="fill:#008000" />
          <path
             id="path4322"
             d="m 4320,7276 c 0,-2 8,-10 18,-17 15,-13 16,-12 3,4 -13,16 -21,21 -21,13 z"
             inkscape:connector-curvature="0"
             style="fill:#008000" />
          <path
             id="path4324"
             d="m 4390,7260 c -9,-6 -10,-10 -3,-10 6,0 15,5 18,10 8,12 4,12 -15,0 z"
             inkscape:connector-curvature="0"
             style="fill:#008000" />
          <path
             id="path4326"
             d="m 4163,7233 c 0,-11 7,-20 14,-20 10,0 10,4 1,16 -7,9 -13,18 -15,20 -1,2 -1,-5 0,-16 z"
             inkscape:connector-curvature="0"
             style="fill:#008000" />
          <path
             id="path4328"
             d="m 4213,7233 c 1,-17 5,-20 19,-12 9,5 20,15 24,22 5,7 1,6 -10,-2 -15,-13 -19,-13 -26,0 -7,10 -9,8 -7,-8 z"
             inkscape:connector-curvature="0"
             style="fill:#008000" />
          <path
             id="path4330"
             d="m 5375,5766 c -63,-63 -29,-274 66,-407 12,-17 19,-32 16,-35 -12,-12 -75,59 -99,113 -15,32 -41,90 -58,128 -51,114 -103,152 -144,106 -25,-28 -22,-83 7,-136 l 25,-45 -38,22 c -79,46 -134,-20 -75,-90 36,-43 155,-99 235,-112 92,-14 170,-13 170,3 0,6 10,-4 23,-23 20,-32 22,-51 27,-208 l 5,-174 27,-23 c 32,-28 60,-24 89,14 18,22 20,36 16,91 -4,51 -2,61 7,46 28,-46 42,-57 75,-58 57,-2 67,46 25,130 -34,69 -114,140 -221,195 -83,43 -86,46 -60,52 55,14 123,-3 234,-59 60,-30 126,-58 146,-61 48,-9 87,14 87,51 0,36 -57,91 -103,99 -46,9 -48,25 -4,25 20,0 40,7 49,18 62,69 -8,117 -136,93 -80,-15 -148,-47 -230,-111 l -69,-53 7,39 c 10,49 28,86 78,152 52,70 98,158 98,187 0,32 -26,55 -62,55 -35,0 -94,-54 -104,-96 -9,-36 -21,-29 -16,10 3,27 -2,40 -22,60 -31,32 -41,32 -71,2 z"
             inkscape:connector-curvature="0"
             style="fill:#008000" />
          <path
             id="path4332"
             d="m 7745,5376 c -27,-13 -62,-36 -77,-52 -28,-31 -100,-145 -94,-151 1,-2 16,3 32,12 21,11 62,15 152,15 109,0 124,2 142,20 16,16 18,25 10,40 -15,28 -47,42 -86,38 -41,-5 -42,-2 -9,24 30,23 32,53 6,68 -25,13 -17,14 -76,-14 z"
             inkscape:connector-curvature="0"
             style="fill:#008000" />
          <path
             id="path4334"
             d="m 5440,5252 c -41,-25 -54,-27 -200,-33 -167,-6 -206,-16 -216,-56 -8,-30 19,-71 52,-79 14,-4 49,-4 79,-2 30,3 55,3 55,2 0,-2 -14,-11 -30,-19 -38,-20 -55,-60 -40,-93 10,-22 15,-24 57,-19 69,7 147,67 210,161 28,42 58,97 67,121 8,25 14,45 13,45 -1,-1 -22,-13 -47,-28 z"
             inkscape:connector-curvature="0"
             style="fill:#008000" />
          <path
             id="path4336"
             d="m 7554,5065 c -24,-24 -64,-50 -99,-63 -79,-31 -125,-66 -125,-98 0,-38 41,-49 95,-25 l 42,19 -11,-29 c -8,-21 -8,-34 0,-47 42,-66 134,58 146,198 8,85 0,92 -48,45 z"
             inkscape:connector-curvature="0"
             style="fill:#008000" />
          <path
             id="path4338"
             d="m 6242,4782 c -19,-6 -14,-29 11,-47 l 22,-17 -27,4 c -67,12 -50,-45 26,-82 35,-17 61,-20 157,-20 103,1 111,2 84,14 -17,7 -55,35 -85,63 -30,27 -66,56 -80,63 -29,16 -90,28 -108,22 z"
             inkscape:connector-curvature="0"
             style="fill:#008000" />
          <path
             id="path4340"
             d="m 7601,4190 c -1,-248 -11,-389 -42,-615 -32,-235 -58,-353 -91,-406 -27,-45 -46,-61 -155,-128 -53,-33 -93,-93 -93,-139 0,-32 24,-84 48,-105 23,-21 77,-26 94,-9 26,26 24,8 -9,-85 -144,-409 -345,-798 -579,-1120 -48,-65 -118,-156 -157,-202 -46,-55 -66,-86 -58,-90 8,-5 -2,-23 -30,-55 -23,-26 -44,-44 -47,-41 -3,3 12,23 33,45 21,22 36,42 34,45 -3,2 -57,-51 -121,-118 -63,-67 -168,-169 -232,-226 l -117,-103 -47,5 c -26,3 -79,11 -117,18 -59,10 -78,10 -115,-2 -55,-17 -63,-50 -15,-60 l 30,-6 -27,-11 c -39,-16 -35,-39 10,-51 56,-16 84,-13 137,14 27,13 50,23 52,21 5,-5 -133,-105 -230,-166 -120,-75 -340,-184 -476,-235 l -100,-37 -83,40 c -100,50 -145,59 -173,38 -20,-16 -20,-16 5,-36 l 25,-20 h -27 c -16,0 -28,-4 -28,-9 0,-16 49,-49 83,-57 l 32,-7 -40,-14 c -84,-29 -312,-64 -456,-70 -449,-18 -735,128 -789,404 -53,266 220,537 497,493 82,-13 172,-52 206,-88 14,-15 46,-62 72,-106 46,-77 47,-80 43,-145 -12,-166 -147,-295 -308,-295 -84,0 -145,27 -208,92 -51,52 -78,116 -66,155 9,28 50,78 78,94 67,39 178,-28 201,-120 4,-15 11,-27 17,-27 12,0 2,34 -26,83 -31,57 -93,91 -156,85 -38,-4 -50,-2 -50,8 0,8 -9,14 -20,14 -11,0 -20,-5 -20,-12 0,-6 -6,-3 -14,8 -14,19 -15,18 -41,-6 -22,-21 -26,-31 -22,-61 3,-20 12,-51 20,-70 8,-19 21,-52 28,-73 15,-50 94,-130 157,-159 71,-32 179,-30 254,5 114,53 179,151 186,281 4,69 6,77 24,77 16,0 19,5 14,24 -5,20 -3,23 14,19 15,-4 20,0 20,14 0,42 -59,89 -135,107 -16,4 -54,23 -85,41 -89,55 -134,68 -240,69 -111,1 -187,-23 -271,-86 -27,-21 -51,-38 -53,-38 -2,0 -1,11 1,24 6,31 -14,42 -38,20 -18,-16 -19,-16 -19,4 0,27 -10,28 -44,1 -22,-17 -26,-28 -25,-67 1,-26 4,-60 8,-75 l 6,-29 23,32 c 33,44 37,32 8,-21 -122,-220 -33,-478 207,-598 97,-49 211,-80 325,-88 45,-3 82,-9 82,-13 0,-10 -47,-28 -95,-36 -75,-13 -137,-56 -120,-84 3,-4 15,-6 28,-3 18,5 20,3 10,-8 -26,-27 -16,-42 24,-34 51,9 69,24 122,101 l 46,66 105,4 c 336,14 695,116 1071,304 253,127 485,300 763,570 105,102 107,104 82,56 -29,-55 -33,-88 -11,-106 11,-9 19,-7 40,14 l 26,26 -7,-35 c -5,-30 -4,-35 14,-35 10,0 31,9 46,21 48,38 59,74 64,209 l 4,125 72,90 c 296,370 553,841 707,1298 13,37 26,67 30,67 3,0 9,-13 12,-30 14,-66 87,-76 131,-17 30,40 26,113 -16,277 l -34,135 18,80 c 54,243 85,486 100,785 8,158 8,252 1,315 -9,84 -10,75 -12,-135 z"
             inkscape:connector-curvature="0"
             style="fill:#008000" />
          <path
             id="path4342"
             d="m 7746,4169 c 36,-40 44,-64 53,-159 11,-103 29,-143 82,-178 27,-19 43,-23 82,-19 61,5 87,29 87,78 0,21 -4,41 -10,44 -23,14 -8,23 18,9 36,-19 97,-18 116,2 43,43 21,111 -46,145 -23,12 -114,36 -203,54 -88,19 -169,37 -180,41 -19,7 -19,6 1,-17 z"
             inkscape:connector-curvature="0"
             style="fill:#008000" />
          <path
             id="path4344"
             d="m 7385,3660 c -77,-10 -152,-21 -168,-25 -36,-10 -77,-60 -77,-95 0,-50 69,-77 121,-49 20,10 20,10 4,-21 -19,-37 -13,-62 22,-90 56,-44 148,-12 177,60 9,22 16,47 16,55 0,39 24,118 45,150 14,20 19,34 12,34 -7,-1 -75,-9 -152,-19 z"
             inkscape:connector-curvature="0"
             style="fill:#008000" />
          <path
             id="path4346"
             d="m 5067,3538 c -23,-18 -37,-61 -38,-116 -1,-45 -1,-46 -12,-20 -29,64 -77,86 -112,51 -39,-38 10,-167 97,-260 53,-55 155,-129 165,-119 10,9 63,-34 93,-76 16,-22 41,-71 56,-110 53,-140 98,-197 147,-184 24,6 47,43 47,75 0,10 -11,40 -25,67 -14,27 -25,50 -25,52 0,2 12,-6 26,-17 34,-26 68,-27 94,-1 28,28 25,44 -16,90 -64,71 -201,119 -344,120 l -65,1 30,24 c 43,35 105,45 242,38 138,-7 189,4 199,42 16,63 -36,101 -125,92 -46,-4 -52,-3 -37,6 61,37 81,81 50,111 -60,61 -242,-67 -323,-227 -18,-36 -37,-64 -42,-62 -21,14 -21,100 1,211 23,115 23,182 0,209 -15,18 -60,19 -83,3 z"
             inkscape:connector-curvature="0"
             style="fill:#008000" />
          <path
             id="path4348"
             d="m 4749,3279 c -33,-33 -19,-75 42,-131 48,-43 50,-47 23,-40 -43,11 -72,4 -91,-24 -38,-59 38,-104 176,-104 86,0 153,16 232,53 43,20 49,26 29,26 -49,2 -126,49 -212,129 -122,114 -159,131 -199,91 z"
             inkscape:connector-curvature="0"
             style="fill:#008000" />
          <path
             id="path4350"
             d="m 6525,3197 c -44,-24 -59,-159 -30,-270 17,-64 65,-165 102,-215 32,-43 24,-50 -16,-16 -48,40 -83,99 -127,209 -62,159 -121,219 -178,182 -41,-27 -45,-78 -10,-146 16,-31 30,-60 33,-65 2,-6 -9,0 -24,12 -55,43 -135,21 -135,-38 0,-56 150,-155 272,-180 79,-16 208,-16 218,-1 5,9 9,7 14,-6 10,-23 -39,-65 -97,-83 -24,-8 -114,-16 -207,-20 -162,-5 -192,-11 -219,-44 -20,-24 -4,-75 32,-97 26,-17 44,-19 100,-16 37,2 67,3 67,2 0,-2 -15,-12 -34,-23 -42,-25 -56,-71 -32,-107 22,-33 58,-32 126,2 90,45 162,127 223,253 28,60 55,110 58,110 19,0 33,-107 33,-256 1,-149 3,-165 22,-191 30,-40 67,-42 105,-3 30,30 31,33 27,106 -2,56 -1,71 7,58 19,-34 63,-74 82,-74 34,0 63,29 63,63 0,100 -118,234 -274,312 -103,51 -111,67 -34,67 68,0 118,-17 243,-82 95,-50 123,-60 164,-60 58,0 81,17 81,62 0,41 -51,91 -112,108 -46,14 -71,38 -27,27 28,-7 77,11 89,33 17,31 11,68 -12,84 -30,21 -138,21 -209,0 -88,-26 -124,-48 -266,-158 l -24,-18 6,33 c 10,55 42,118 104,204 32,44 65,94 73,110 44,86 27,145 -40,145 -51,0 -77,-21 -112,-88 l -29,-57 -1,45 c 0,25 -7,55 -15,67 -17,24 -56,34 -80,20 z"
             inkscape:connector-curvature="0"
             style="fill:#008000" />
          <path
             id="path4352"
             d="m 5191,3028 c -2,-36 -74,-91 -195,-148 -118,-55 -176,-100 -176,-135 0,-24 42,-55 74,-55 31,0 57,11 111,46 l 30,19 -23,-32 c -24,-34 -29,-82 -10,-101 7,-7 25,-12 41,-12 32,0 76,42 107,100 42,81 70,247 51,305 -5,17 -10,22 -10,13 z"
             inkscape:connector-curvature="0"
             style="fill:#008000" />
        </g>
        <text
           xml:space="preserve"
           style="font-style:normal;font-weight:normal;font-size:18.84818077px;line-height:1.25;font-family:sans-serif;letter-spacing:0px;word-spacing:0px;fill:#554400;fill-opacity:1;stroke:none;stroke-width:0.47120455"
           x="480.85934"
           y="148.68953"
           id="text4444"
           transform="scale(0.94934234,1.0533608)"><tspan
             sodipodi:role="line"
             id="tspan4442"
             x="480.85934"
             y="148.68953"
             style="fill:#554400;stroke-width:0.47120455">装修案例</tspan></text>
      </g>
    </g>
  </g>
</svg>
